<?xml version="1.0" encoding="UTF-8" standalone="no"?>
<!-- Created for MapSVG plugin: http://mapsvg.com -->
<svg
   xmlns:mapsvg="http://mapsvg.com"
   xmlns:dc="http://purl.org/dc/elements/1.1/"
   xmlns:rdf="http://www.w3.org/1999/02/22-rdf-syntax-ns#"
   xmlns:svg="http://www.w3.org/2000/svg"
   xmlns="http://www.w3.org/2000/svg"
   mapsvg:geoViewBox="-4.796120 51.089515 9.560553 41.363289"
   width="596.41547"
   height="584.5448">  
  <path
     d="m 563.65497,571.65393 1.21,-2.68 2.83,-0.29 1.79,-2.26 -4.31,-1.47 -1.27,0.8 -0.28,-2.29 -2.82,1.09 -0.1,-0.98 -1.9,-0.07 2.98,-2 -0.77,-1.43 2.48,-0.52 0.49,-1.16 -1.36,-0.7 1.56,-0.3 -0.41,-1.8 1.02,-0.7 -2.28,-2.11 -1.21,1.4 -4.62,0.79 0.64,-2.29 -1.27,-1.68 2.32,-0.19 0.49,-2.44 3.62,-2.07 -1.97,-3.49 -1.69,0.66 -1.96,-1.91 -1.3,0.37 0.18,-1.31 -1.15,0.33 1.49,-1.26 -1.35,-0.18 0.83,-1.91 -1.7,-1.78 6.43,-1.64 -1.43,-2 -2.32,-0.18 0.44,-2.47 -2.58,0.89 -0.34,-2.31 2.67,-0.63 -0.14,-1.67 2.06,0.06 -0.28,-1.52 1.31,-1.49 -1.29,-0.54 0.74,-2.08 2.23,-0.54 -0.58,-2.48 0.81,-0.85 0.07,1.31 1.15,-0.57 1.4,1 0.55,-2.74 2.69,-0.33 2.71,-2.15 3.44,0.3 1.88,-1.13 -0.11,-1.98 2.78,-1.98 4.03,-0.21 3.19,3.3 1.91,-3.34 -0.1,-3.32 -1.37,-2.15 1.28,-1.84 -0.76,-1.93 1.63,-1.36 -0.88,-3.95 3.45,-0.98 1.68,1.41 1.22,10.14 -1.95,7.42 3.6,7.14 1.08,19.75 -0.39,5.13 -5.7,8.35 -1.05,17.06 -1.83,0.74 0.52,0.85 -1.93,-0.65 -1.22,1.78 0.37,1.18 1.27,-1.66 2.12,0.59 -1.07,1.95 -2.89,1.58 0.2,3.66 -2.3,1.2 -0.58,1.61 2.34,-0.82 -0.25,0.81 -1.6,2.61 -1.71,0.13 -0.95,-1.55 -2.64,-0.1 1.13,-2.4 -2.1,-0.36 0.39,-2.03 -1.66,1.35 -1.7,-1.84 -0.63,0.89 -2.62,-0.84 -1.83,-1.94 -1.39,0.36 0.46,-1.61 -2.76,-0.49 0.71,-1.06 -1.22,-1.01 z"
     title="Corse"
     fill="#017f82"
     id="FR-H" />
</svg>