<?xml version="1.0" encoding="UTF-8" standalone="no"?>
<svg
   xmlns:dc="http://purl.org/dc/elements/1.1/"
   xmlns:cc="http://creativecommons.org/ns#"
   xmlns:rdf="http://www.w3.org/1999/02/22-rdf-syntax-ns#"
   xmlns:svg="http://www.w3.org/2000/svg"
   xmlns="http://www.w3.org/2000/svg"
   xmlns:sodipodi="http://sodipodi.sourceforge.net/DTD/sodipodi-0.dtd"
   xmlns:inkscape="http://www.inkscape.org/namespaces/inkscape"
   width="777"
   height="581"
   viewBox="-2 82 555 415"
   version="1.1"
   inkscape:version="0.92.1 r15371"
   sodipodi:docname="Régionales 2015 Île-de-France T2.svg"
   id="svg3137">
  <defs
     id="defs3287" />
  <sodipodi:namedview
     borderopacity="1"
     objecttolerance="10"
     gridtolerance="10"
     guidetolerance="10"
     inkscape:pageopacity="0"
     inkscape:pageshadow="2"
     inkscape:window-width="1366"
     inkscape:window-height="745"
     id="namedview3285"
     showgrid="false"
     inkscape:zoom="1.018906"
     inkscape:cx="393.15368"
     inkscape:cy="287.10874"
     inkscape:window-x="-8"
     inkscape:window-y="-8"
     inkscape:window-maximized="1"
     inkscape:current-layer="layer1" />
  <metadata
     id="metadata3139">
    <rdf:RDF>
      <cc:Work
         rdf:about="">
        <dc:format>image/svg+xml</dc:format>
        <dc:type
           rdf:resource="http://purl.org/dc/dcmitype/StillImage" />
        <dc:title></dc:title>
      </cc:Work>
    </rdf:RDF>
  </metadata>
  <g
     inkscape:label="Capa 1"
     inkscape:groupmode="layer"
     id="layer1"
     transform="translate(-51.504517,-207.9041)">
    <path
       style="fill:#835b9b;stroke:#b1d0d2;stroke-width:0.5;stroke-linecap:butt;stroke-linejoin:miter;stroke-opacity:1;fill-opacity:1;stroke-miterlimit:4;stroke-dasharray:none"
       d="M 258.21875 241.96875 L 267.1875 242.90625 L 271.03125 241.0625 L 275.90625 238.15625 L 282.25 240.25 L 288.875 240.78125 L 290.46875 237.34375 L 290.71875 234.0625 L 288.875 232.0625 L 282.40625 231.8125 L 280.53125 233 L 279.75 235.375 L 278.03125 234.96875 L 278.96875 230 L 278.96875 229.9375 L 278.96875 221.9375 L 275.78125 217.46875 L 273.8125 211.4375 L 257.03125 211.03125 L 253.53125 212.59375 L 249.96875 215.78125 L 247.5625 218.96875 L 240.625 219.5 L 238.375 221.1875 L 236.15625 224.75 L 235.21875 227.5625 L 243.625 235.21875 L 258.21875 241.9375 L 258.21875 241.96875 z "
       id="path2894"
       transform="translate(51.504517,207.9041)" />
    <path
       style="fill:#b1d0d2;stroke:#000000;stroke-width:0.50000000000000000;stroke-linecap:butt;stroke-linejoin:miter;stroke-opacity:0.23529412;fill-opacity:0.46153845999999998;stroke-miterlimit:4;stroke-dasharray:none"
       d="M 218.3125 229.84375 L 220.25 230.46875 L 224.34375 229.6875 L 223.6875 231.8125 L 221.1875 232.71875 L 221.1875 233.65625 L 222.78125 233 L 225.40625 234.0625 L 228.0625 232.84375 L 228.0625 230.875 L 230.1875 229.28125 L 228.1875 228.375 L 229.5 226.25 L 231.21875 226.25 L 231.625 227.1875 L 235.34375 227.65625 L 235.21875 227.5625 L 236.15625 224.75 L 238.375 221.1875 L 240.625 219.5 L 247.5625 218.96875 L 249.96875 215.78125 L 253.53125 212.59375 L 257.09375 211 L 254.9375 207.5625 L 255.6875 207 L 258.03125 205.40625 L 259.3125 204 L 260.25 201.84375 L 260.25 199.125 L 259.59375 198.28125 L 258.21875 196.90625 L 256.4375 196.0625 L 254.5625 195.5 L 249.03125 195.40625 L 246.0625 195.78125 L 243.4375 196.53125 L 241.1875 198.375 L 236.34375 202.875 L 232.21875 206.25 L 227.59375 209.1875 L 226.59375 211.09375 L 221.75 213.71875 L 219.875 217.46875 L 217.25 223.4375 L 218.3125 229.84375 z "
       id="path2889"
       transform="translate(51.504517,207.9041)" />
    <g
       id="g5154"
       style="fill:#b1d0d2;fill-opacity:1;stroke:#0066cc;stroke-opacity:1">
      <path
         transform="translate(51.504517,207.9041)"
         id="path2947"
         d="M 257.34375 409 L 259.125 406.96875 L 255.96875 403.53125 L 253.3125 403.53125 L 252.53125 404.875 L 250.9375 403.28125 L 252.78125 400.09375 L 251.46875 399.03125 L 251.71875 398 L 255.96875 398 L 257.53125 394.5625 L 257.53125 389.25 L 255.6875 388.46875 L 258.0625 385.8125 L 257.8125 383.4375 L 260.4375 381.84375 L 262.03125 383.71875 L 263.875 378.9375 L 269.4375 376.84375 L 269.4375 380 L 270.5 381.59375 L 279.5 383.1875 L 280.8125 380.8125 L 278.4375 379.75 L 280.03125 375.78125 L 276.59375 371.53125 L 276.84375 368.09375 L 284.25 368.625 L 286.625 361.21875 L 283.46875 361.21875 L 284.5 359.375 L 287.6875 358.84375 L 283.96875 355.40625 L 283.96875 353.5625 L 280.03125 351.1875 L 275.78125 351.71875 L 272.34375 348.8125 L 270.5 349.875 L 266.28125 348.28125 L 264.6875 343.25 L 267.3125 340.34375 L 262.5625 338.21875 L 260.96875 339.8125 L 261.25 344.3125 L 260.1875 346.6875 L 255.96875 346.15625 L 251.71875 343 L 253.03125 337.6875 L 249.59375 337.15625 L 249.34375 340.875 L 242.21875 342.1875 L 238.78125 337.96875 L 236.90625 339.5625 L 236.65625 336.90625 L 234.8125 335.0625 L 235.34375 329.25 L 233.46875 326.84375 L 231.09375 328.96875 L 226.875 325 L 225.8125 326.0625 L 223.96875 325 L 222.125 326.59375 L 220 324.46875 L 216.28125 326.59375 L 214.71875 324.46875 L 216.5625 323.15625 L 216.28125 319.1875 L 213.65625 320.5 L 212.59375 319.1875 L 206.78125 321.5625 L 206.5 318.65625 L 204.125 319.46875 L 200.4375 316.8125 L 198.84375 319.1875 L 195.125 319.46875 L 193.90625 316.90625 L 189.96875 316.1875 L 189.96875 318.78125 L 192.21875 322.15625 L 189.96875 324.03125 L 186.21875 328.15625 L 186.96875 331.875 L 183.96875 333.75 L 179.5 333.75 L 175.75 331.875 L 170.90625 331.5 L 168.28125 330 L 166.78125 331.875 L 166.78125 335.625 L 173.5 341.59375 L 173.125 344.21875 L 163.40625 359.9375 L 163.40625 369.8125 L 164.15625 368.90625 L 168.65625 375.25 L 166.03125 385.71875 L 176.5 386.46875 L 179.125 401.0625 L 174.25 408.90625 L 175.75 413.03125 L 170.90625 420.5 L 176.875 428 L 194.0625 428.75 L 196.6875 425 L 202.6875 425 L 204.53125 420.875 L 207.90625 423.5 L 216.875 422 L 218 418.25 L 223.625 419.375 L 230.71875 408.53125 L 237.4375 412.28125 L 238.1875 425 L 251.28125 419.75 L 257.28125 408.90625 L 257.34375 409 z "
         style="fill:#b1d0d2;stroke:#0066cc;stroke-width:0.5;stroke-linecap:butt;stroke-linejoin:miter;stroke-opacity:1;fill-opacity:1;stroke-miterlimit:4;stroke-dasharray:none" />
      <path
         transform="translate(51.504517,207.9041)"
         id="path2952"
         d="M 276.1875 275.15625 L 275.96875 277.65625 L 273.53125 280.46875 L 274.65625 283.09375 L 272.21875 284.21875 L 271.65625 286.0625 L 268.125 286.0625 L 265.3125 290.5625 L 262.125 292.25 L 259.3125 299.53125 L 263.625 302.34375 L 263.625 306.09375 L 261.9375 308.3125 L 266.0625 311.6875 L 266.4375 314.125 L 268.125 313.5625 L 266.8125 316.9375 L 268.6875 317.5 L 267.5625 319.15625 L 261.9375 318.78125 L 261 320.46875 L 261 327.40625 L 262.6875 330.1875 L 262.875 335.4375 L 264.59375 339.125 L 267.3125 340.34375 L 264.6875 343.25 L 266.28125 348.28125 L 270.5 349.875 L 272.34375 348.8125 L 275.78125 351.71875 L 280.03125 351.1875 L 283.96875 353.5625 L 283.96875 355.40625 L 287.6875 358.84375 L 284.5 359.375 L 283.46875 361.21875 L 286.625 361.21875 L 284.25 368.625 L 276.84375 368.09375 L 276.59375 371.53125 L 280.03125 375.78125 L 278.4375 379.75 L 280.8125 380.8125 L 279.5 383.1875 L 270.5 381.59375 L 269.4375 380 L 269.4375 376.84375 L 263.875 378.9375 L 262.03125 383.71875 L 260.4375 381.84375 L 257.8125 383.4375 L 258.0625 385.8125 L 255.6875 388.46875 L 257.53125 389.25 L 257.53125 394.5625 L 255.96875 398 L 251.71875 398 L 251.46875 399.03125 L 252.78125 400.09375 L 250.9375 403.28125 L 252.53125 404.875 L 253.3125 403.53125 L 255.96875 403.53125 L 259.125 406.96875 L 257.34375 409 L 265.125 420.125 L 275.75 419.46875 L 275.96875 418.625 L 273.34375 412.65625 L 275.59375 410.40625 L 284.5625 409.65625 L 283.8125 404.0625 L 285.6875 402.9375 L 284.1875 400.3125 L 287.5625 396.5625 L 290.5625 398.0625 L 295.78125 395.09375 L 293.15625 391.34375 L 293.53125 389.46875 L 299.53125 390.21875 L 303.28125 386.46875 L 308.125 386.46875 L 305.125 380.5 L 299.15625 377.125 L 298.78125 357.6875 L 301.78125 352.8125 L 300.28125 345.71875 L 296.90625 345.71875 L 297.28125 341.96875 L 299.90625 340.125 L 298.78125 336 L 300.65625 334.5 L 302.90625 328.90625 L 302.53125 322.90625 L 308.875 318.0625 L 308.875 313.5625 L 304 310.9375 L 302.53125 306.46875 L 307.375 304.96875 L 309.625 300.84375 L 304.75 297.84375 L 310.375 291.125 L 314.125 294.125 L 317.46875 289.625 L 316.59375 286.125 L 310.75 287 L 305.5 282.90625 L 304.375 278.78125 L 300.65625 270.5625 L 287.1875 273.9375 L 287.1875 277.65625 L 283.4375 276.90625 L 278.21875 277.28125 L 277.46875 275.03125 L 276.1875 275.15625 z "
         style="fill:#b1d0d2;stroke:#0066cc;stroke-width:0.5;stroke-linecap:butt;stroke-linejoin:miter;stroke-opacity:1;fill-opacity:1;stroke-miterlimit:4;stroke-dasharray:none" />
      <path
         transform="translate(51.504517,207.9041)"
         id="path2872"
         d="M 233.75 255.65625 L 233.71875 255.96875 L 231.09375 257.84375 L 228.09375 257.09375 L 227.34375 263.8125 L 222.125 262.34375 L 218.75 264.9375 L 216.5 263.4375 L 212.03125 269.4375 L 209.03125 268.3125 L 206.78125 270.9375 L 209.40625 277.65625 L 204.53125 283.65625 L 201.5625 284.78125 L 199.6875 288.5 L 193.3125 287.375 L 189.59375 294.875 L 183.96875 296.375 L 183.21875 300.09375 L 186.96875 303.84375 L 189.59375 303.46875 L 191.09375 310.5625 L 196.3125 312.8125 L 194.0625 316.9375 L 193.90625 316.90625 L 195.125 319.46875 L 198.84375 319.1875 L 200.4375 316.8125 L 204.125 319.46875 L 206.5 318.65625 L 206.78125 321.5625 L 212.59375 319.1875 L 213.65625 320.5 L 216.28125 319.1875 L 216.5625 323.15625 L 214.71875 324.46875 L 216.28125 326.59375 L 220 324.46875 L 222.125 326.59375 L 223.96875 325 L 225.8125 326.0625 L 226.875 325 L 231.09375 328.96875 L 233.46875 326.84375 L 235.34375 329.25 L 234.8125 335.0625 L 236.65625 336.90625 L 236.90625 339.5625 L 238.78125 337.96875 L 242.21875 342.1875 L 249.34375 340.875 L 249.59375 337.15625 L 253.03125 337.6875 L 251.71875 343 L 255.96875 346.15625 L 260.1875 346.6875 L 261.25 344.3125 L 260.96875 339.8125 L 262.5625 338.21875 L 264.59375 339.125 L 262.875 335.4375 L 262.6875 330.1875 L 261 327.40625 L 261 320.46875 L 261.9375 318.78125 L 267.5625 319.15625 L 268.6875 317.5 L 266.8125 316.9375 L 268.125 313.5625 L 266.4375 314.125 L 266.0625 311.6875 L 261.9375 308.3125 L 263.625 306.09375 L 263.625 302.34375 L 259.3125 299.53125 L 262.125 292.25 L 265.3125 290.5625 L 268.125 286.0625 L 271.65625 286.0625 L 272.21875 284.21875 L 274.65625 283.09375 L 273.53125 280.46875 L 275.96875 277.65625 L 276.1875 275.15625 L 269.625 275.78125 L 267 267.5625 L 261.75 267.5625 L 258.78125 264.1875 L 255.03125 265.6875 L 255.03125 272.0625 L 252.03125 272.4375 L 251.28125 268.3125 L 248.28125 271.3125 L 246.0625 268.6875 L 249.03125 265.3125 L 245.3125 261.21875 L 240.0625 261.96875 L 234.46875 255.96875 L 233.75 255.65625 z "
         style="fill:#b1d0d2;stroke:#0066cc;stroke-width:0.5;stroke-linecap:butt;stroke-linejoin:miter;stroke-opacity:1;fill-opacity:1;stroke-miterlimit:4;stroke-dasharray:none" />
    </g>
    <path
       style="fill:#008b8b;stroke:#000000;stroke-width:0.50000000000000000;stroke-linecap:butt;stroke-linejoin:miter;stroke-opacity:0.23529412000000000;fill-opacity:0.41346154;stroke-miterlimit:4;stroke-dasharray:none"
       d="M 248 237.21875 L 246.6875 238.40625 L 247.21875 239.71875 L 245.375 241.4375 L 245.375 242.78125 L 242.21875 242.5 L 240.5 241.3125 L 240.625 244.09375 L 239.15625 245.03125 L 239.15625 245.9375 L 237.4375 246.59375 L 236.125 249.90625 L 236.53125 251.5 L 235.71875 252.96875 L 233.96875 253.03125 L 233.75 255.65625 L 234.46875 255.96875 L 240.0625 261.96875 L 245.3125 261.21875 L 249.03125 265.3125 L 246.0625 268.6875 L 248.28125 271.3125 L 251.28125 268.3125 L 252.03125 272.4375 L 255.03125 272.0625 L 255.03125 265.6875 L 256.875 264.9375 L 255.40625 261.78125 L 257.09375 256.71875 L 258.40625 252.96875 L 256.71875 250.5625 L 257.28125 246.625 L 258.40625 244.5625 L 258.21875 241.9375 L 248 237.21875 z "
       id="path2976"
       transform="translate(51.504517,207.9041)" />
    <path
       style="fill:#008b8b;stroke:#000000;stroke-width:0.50000000000000000;stroke-linecap:butt;stroke-linejoin:miter;stroke-opacity:0.23529412000000000;fill-opacity:0.26923078;stroke-miterlimit:4;stroke-dasharray:none"
       d="M 229.5 226.25 L 228.1875 228.375 L 230.1875 229.28125 L 228.0625 230.875 L 228.0625 232.84375 L 225.40625 234.0625 L 222.78125 233 L 221.1875 233.65625 L 221.1875 232.71875 L 223.6875 231.8125 L 224.34375 229.6875 L 220.25 230.46875 L 218.3125 229.84375 L 219.125 234.65625 L 223.625 242.125 L 224.75 248.125 L 229.59375 250 L 234.09375 251.5 L 233.96875 253.03125 L 235.71875 252.96875 L 236.53125 251.5 L 236.125 249.90625 L 237.4375 246.59375 L 239.15625 245.9375 L 239.15625 245.03125 L 240.625 244.09375 L 240.5 241.3125 L 242.21875 242.5 L 245.375 242.78125 L 245.375 241.4375 L 247.21875 239.71875 L 246.6875 238.40625 L 248 237.21875 L 243.625 235.21875 L 235.34375 227.65625 L 231.625 227.1875 L 231.21875 226.25 L 229.5 226.25 z "
       id="path2971"
       transform="translate(51.504517,207.9041)" />
    <g
       id="g5141"
       style="fill:#008b8b;fill-opacity:1;stroke:#ff8080;stroke-opacity:1">
      <path
         transform="translate(51.504517,207.9041)"
         id="path2995"
         d="M 273.8125 211.4375 L 275.40625 207.9375 L 277.28125 209.03125 L 277.84375 207.9375 L 276.34375 206.8125 L 276.90625 205.6875 L 278.21875 206.25 L 280.28125 201.9375 L 278.96875 200.625 L 279.71875 198.1875 L 275.40625 194.09375 L 275.90625 191.96875 L 271.09375 187.15625 L 266.25 185.6875 L 264.375 189.40625 L 261.75 189.03125 L 259.5 193.15625 L 255.40625 192.40625 L 250.90625 189.03125 L 248.65625 191.28125 L 249.03125 195.40625 L 254.5625 195.5 L 256.4375 196.0625 L 258.21875 196.90625 L 259.59375 198.28125 L 260.25 199.125 L 260.25 201.84375 L 259.3125 204 L 258.03125 205.40625 L 255.6875 207 L 254.9375 207.5625 L 257.09375 211 L 257.03125 211.03125 L 273.8125 211.4375 z "
         style="fill:#008b8b;stroke:#ff8080;stroke-width:0.5;stroke-linecap:butt;stroke-linejoin:miter;stroke-opacity:1;fill-opacity:1;stroke-miterlimit:4;stroke-dasharray:none" />
      <path
         transform="translate(51.504517,207.9041)"
         id="path3000"
         d="M 297.34375 225.5 L 298.59375 221.1875 L 299.34375 221.5625 L 300.46875 219.875 L 302.15625 220.8125 L 304.5625 220.8125 L 302.53125 215.21875 L 301.21875 215.78125 L 299.71875 214.28125 L 300.28125 212.03125 L 302.53125 207.9375 L 300.46875 208.65625 L 299.34375 205.6875 L 297.09375 205.875 L 292.25 205.125 L 289.625 204.1875 L 289.625 200.8125 L 286.625 197.625 L 284.5625 199.3125 L 282.6875 198.1875 L 286.1875 193.40625 L 281.21875 190.90625 L 275.96875 192.03125 L 275.90625 191.96875 L 275.40625 194.09375 L 279.71875 198.1875 L 278.96875 200.625 L 280.28125 201.9375 L 278.21875 206.25 L 276.90625 205.6875 L 276.34375 206.8125 L 277.84375 207.9375 L 277.28125 209.03125 L 275.40625 207.9375 L 273.8125 211.4375 L 275.78125 217.46875 L 278.96875 221.9375 L 278.96875 230 L 283.625 230.53125 L 286.25 228.875 L 289.8125 225.6875 L 297.34375 225.5 z "
         style="fill:#008b8b;stroke:#ff8080;stroke-width:0.5;stroke-linecap:butt;stroke-linejoin:miter;stroke-opacity:1;fill-opacity:1;stroke-miterlimit:4;stroke-dasharray:none" />
      <path
         transform="translate(51.504517,207.9041)"
         id="path2867"
         d="M 314.125 172.96875 L 311.125 173.21875 L 311.125 174.46875 L 307 175.5625 L 302.90625 181.9375 L 298.40625 185.3125 L 290.9375 188.28125 L 286.4375 193.53125 L 286.1875 193.40625 L 282.6875 198.1875 L 284.5625 199.3125 L 286.625 197.625 L 289.625 200.8125 L 289.625 204.1875 L 292.25 205.125 L 297.09375 205.875 L 299.34375 205.6875 L 300.46875 208.65625 L 302.53125 207.9375 L 300.28125 212.03125 L 299.71875 214.28125 L 301.21875 215.78125 L 302.53125 215.21875 L 304.5625 220.8125 L 302.15625 220.8125 L 300.46875 219.875 L 299.34375 221.5625 L 298.59375 221.1875 L 297.34375 225.5 L 297.65625 225.5 L 300.46875 227.5625 L 306.25 231.46875 L 310.5625 234.84375 L 310.75 237.09375 L 316.71875 242.6875 L 320.84375 244.0625 L 320.84375 242.125 L 318.59375 237.28125 L 314.84375 229.0625 L 317.84375 227.9375 L 317.84375 225.6875 L 313.75 223.8125 L 313.75 216.34375 L 317.46875 214.09375 L 318.96875 204.75 L 323.46875 198.75 L 320.46875 198.75 L 313.375 184.5625 L 317.46875 181.9375 L 314.125 172.96875 z "
         style="fill:#008b8b;stroke:#ff8080;stroke-width:0.5;stroke-linecap:butt;stroke-linejoin:miter;stroke-opacity:1;fill-opacity:1;stroke-miterlimit:4;stroke-dasharray:none" />
    </g>
    <g
       id="g5166"
       style="fill:#03a5a9;fill-opacity:1;stroke:#0066cc;stroke-opacity:1">
      <path
         transform="translate(51.504517,207.9041)"
         id="path2899"
         d="M 288.875 240.75 L 290.5625 242.6875 L 288.6875 244.375 L 291.3125 244.375 L 292.78125 241.9375 L 295.03125 243.625 L 298.96875 244.1875 L 302.15625 244.75 L 303.09375 246.0625 L 303.625 248.5 L 303.625 250.5625 L 302.90625 252.0625 L 301.78125 254.46875 L 303.625 254.65625 L 303.625 255.59375 L 305.3125 255.40625 L 306.8125 255.96875 L 308.125 258.21875 L 307.9375 259.53125 L 310.1875 260.46875 L 312.8125 260.28125 L 313.9375 259.15625 L 315.78125 258.78125 L 316.53125 259.71875 L 315.96875 261.78125 L 314.65625 261.59375 L 315.96875 263.4375 L 317.46875 263.4375 L 318.40625 260.28125 L 321.0625 261.59375 L 323.09375 258.21875 L 317.84375 257.84375 L 317.84375 253.71875 L 320.84375 250 L 320.84375 244.0625 L 316.71875 242.6875 L 310.75 237.09375 L 310.5625 234.84375 L 306.25 231.46875 L 300.46875 227.5625 L 297.65625 225.5 L 289.8125 225.6875 L 286.25 228.875 L 283.625 230.53125 L 278.96875 230 L 278.03125 234.96875 L 279.75 235.375 L 280.53125 233 L 282.40625 231.8125 L 288.875 232.0625 L 290.71875 234.0625 L 290.46875 237.34375 L 288.875 240.75 z "
         style="fill:#03a5a9;stroke:#0066cc;stroke-width:0.5;stroke-linecap:butt;stroke-linejoin:miter;stroke-opacity:1;fill-opacity:1;stroke-miterlimit:4;stroke-dasharray:none" />
      <path
         transform="translate(51.504517,207.9041)"
         id="path3058"
         d="M 266.8125 267.5625 L 267 267.5625 L 269.625 275.78125 L 277.46875 275.03125 L 278.21875 277.28125 L 283.4375 276.90625 L 287.1875 277.65625 L 287.1875 273.9375 L 300.65625 270.5625 L 304.375 278.78125 L 305.5 282.90625 L 310.75 287 L 316.59375 286.125 L 316.34375 285.15625 L 313.375 280.65625 L 319.34375 273.1875 L 320.09375 270.5625 L 318.21875 270.5625 L 316.71875 267.9375 L 320.84375 264.9375 L 320.84375 261.96875 L 321.0625 261.59375 L 318.40625 260.28125 L 317.46875 263.4375 L 315.96875 263.4375 L 314.65625 261.59375 L 315.96875 261.78125 L 316.53125 259.71875 L 315.78125 258.78125 L 313.9375 259.15625 L 312.8125 260.28125 L 310.1875 260.46875 L 307.9375 259.53125 L 308.125 258.21875 L 306.8125 255.96875 L 305.3125 255.40625 L 303.625 255.59375 L 303.625 254.65625 L 301.78125 254.46875 L 302.90625 252.0625 L 303.625 250.5625 L 303.625 248.5 L 303.09375 246.0625 L 302.15625 244.75 L 298.96875 244.1875 L 295.03125 243.625 L 292.78125 241.9375 L 291.3125 244.375 L 288.6875 244.375 L 290.5625 242.6875 L 288.875 240.78125 L 282.25 240.25 L 275.90625 238.15625 L 271.03125 241.0625 L 267.46875 242.78125 L 267.5625 244.5625 L 269.25 246.8125 L 268.6875 248.875 L 270.1875 252.40625 L 267.9375 255.40625 L 268.3125 257.84375 L 269.8125 258.21875 L 271.65625 257.09375 L 275.03125 257.09375 L 276.34375 259.15625 L 275.21875 259.53125 L 276.53125 261.96875 L 277.09375 265.125 L 275.59375 265.5 L 274.84375 264.375 L 274.28125 264.75 L 272.59375 263.8125 L 272.78125 264.9375 L 268.6875 266.625 L 266.8125 267.5625 z "
         style="fill:#03a5a9;stroke:#0066cc;stroke-width:0.5;stroke-linecap:butt;stroke-linejoin:miter;stroke-opacity:1;fill-opacity:1;stroke-miterlimit:4;stroke-dasharray:none" />
      <path
         transform="translate(51.504517,207.9041)"
         id="path3053"
         d="M 266.8125 267.5625 L 268.6875 266.625 L 272.78125 264.9375 L 272.59375 263.8125 L 274.28125 264.75 L 274.84375 264.375 L 275.59375 265.5 L 277.09375 265.125 L 276.53125 261.96875 L 275.21875 259.53125 L 276.34375 259.15625 L 275.03125 257.09375 L 271.65625 257.09375 L 269.8125 258.21875 L 268.3125 257.84375 L 267.9375 255.40625 L 270.1875 252.40625 L 268.6875 248.875 L 269.25 246.8125 L 267.5625 244.5625 L 267.46875 242.78125 L 267.1875 242.90625 L 258.21875 241.96875 L 258.40625 244.5625 L 257.28125 246.625 L 256.71875 250.5625 L 258.40625 252.96875 L 257.09375 256.71875 L 255.40625 261.78125 L 256.875 264.9375 L 258.78125 264.1875 L 261.75 267.5625 L 266.8125 267.5625 z "
         style="fill:#03a5a9;;stroke-width:0.5;stroke-linecap:butt;stroke-linejoin:miter;stroke-opacity:1;fill-opacity:1;stroke-miterlimit:4;stroke-dasharray:none" />
    </g>
    <g
       id="g5122"
       style="fill:#b1d0d2;fill-opacity:1;stroke:#0066cc;stroke-opacity:1">
      <path
         transform="translate(51.504517,207.9041)"
         id="path2830"
         d="M 115.5625 92.5625 L 114.8125 97.8125 L 107.3125 104.15625 L 106.9375 118 L 102.84375 127.71875 L 104.71875 129.96875 L 97.21875 140.4375 L 97.59375 149.03125 L 97.09375 149.40625 L 97.96875 150.53125 L 104.34375 149.40625 L 111.0625 153.125 L 112.1875 158 L 121.53125 158.75 L 126.03125 160.25 L 129 155.375 L 134.625 157.625 L 136.125 152.78125 L 143.59375 150.15625 L 147.71875 156.5 L 151.0625 156.5 L 150.3125 161.75 L 148.46875 166.96875 L 151.8125 171.84375 L 157.0625 169.21875 L 156.3125 165.84375 L 162.65625 161 L 166.78125 168.46875 L 174.625 166.96875 L 175.75 171.46875 L 181.75 169.96875 L 186.96875 177.8125 L 200.4375 176.3125 L 202.3125 171.84375 L 206.78125 172.96875 L 210.0625 171.34375 L 210.15625 171.09375 L 212.03125 164.90625 L 215.1875 169.96875 L 223.15625 171.65625 L 226.34375 170.3125 L 228.46875 178.53125 L 233.46875 178.25 L 234.53125 176.15625 L 239.03125 180.90625 L 244.59375 181.6875 L 247.5 181.96875 L 246.96875 175.875 L 245.375 174.8125 L 248.8125 169.53125 L 245.65625 164.25 L 247.75 163.1875 L 247.75 159.21875 L 247.21875 156.84375 L 246.96875 152.34375 L 249.34375 150.21875 L 256.75 137.8125 L 256.46875 129.59375 L 264.6875 123.53125 L 264.6875 123.5 L 255.78125 111.625 L 250.90625 112 L 245.6875 120.59375 L 232.96875 123.96875 L 235.96875 119.125 L 231.46875 113.125 L 219.875 120.59375 L 218.75 116.875 L 219.125 114.25 L 215.03125 110.875 L 203.8125 110.125 L 203.4375 104.53125 L 199.6875 104.15625 L 181 115 L 176.125 112.375 L 168.65625 118.75 L 166.03125 116.125 L 156.3125 120.21875 L 152.9375 115.75 L 144.71875 117.625 L 136.125 111.25 L 132 111.625 L 128.25 114.25 L 123.40625 112.75 L 118.53125 105.65625 L 123.40625 98.53125 L 118.90625 96.3125 L 118.15625 92.9375 L 115.5625 92.5625 z "
         style="fill:#b1d0d2;stroke-width:0.5;stroke-linecap:butt;stroke-linejoin:miter;stroke-opacity:1;fill-opacity:1;stroke-miterlimit:4;stroke-dasharray:none" />
      <path
         transform="translate(51.504517,207.9041)"
         id="path3082"
         d="M 248.78125 191.15625 L 244.0625 188.03125 L 244.0625 184.59375 L 245.375 183.28125 L 245.0625 181.71875 L 244.59375 181.6875 L 239.03125 180.90625 L 234.53125 176.15625 L 233.46875 178.25 L 228.46875 178.53125 L 226.34375 170.3125 L 223.15625 171.65625 L 215.1875 169.96875 L 212.03125 164.90625 L 210.15625 171.09375 L 210.0625 171.34375 L 210.53125 171.09375 L 211.65625 180.0625 L 216.125 181.1875 L 220.25 183.4375 L 222.875 187.90625 L 223.625 192.78125 L 229.21875 194.28125 L 229.96875 204.75 L 227.59375 209.1875 L 232.21875 206.25 L 236.34375 202.875 L 241.1875 198.375 L 243.4375 196.53125 L 246.0625 195.78125 L 249.03125 195.40625 L 248.65625 191.28125 L 248.78125 191.15625 z "
         style="fill:#b1d0d2;stroke-width:0.5;stroke-linecap:butt;stroke-linejoin:miter;stroke-opacity:1;fill-opacity:1;stroke-miterlimit:4;stroke-dasharray:none" />
      <path
         transform="translate(51.504517,207.9041)"
         id="path3077"
         d="M 268.5 120.59375 L 264.75 123.59375 L 264.6875 123.53125 L 256.46875 129.59375 L 256.75 137.8125 L 249.34375 150.21875 L 246.96875 152.34375 L 247.21875 156.84375 L 247.75 159.21875 L 247.75 163.1875 L 245.65625 164.25 L 248.8125 169.53125 L 245.375 174.8125 L 246.96875 175.875 L 247.5 181.96875 L 245.0625 181.71875 L 245.375 183.28125 L 244.0625 184.59375 L 244.0625 188.03125 L 248.78125 191.15625 L 250.90625 189.03125 L 255.40625 192.40625 L 259.5 193.15625 L 261.75 189.03125 L 264.375 189.40625 L 266.25 185.6875 L 271.09375 187.15625 L 275.96875 192.03125 L 281.21875 190.90625 L 286.4375 193.53125 L 290.9375 188.28125 L 298.40625 185.3125 L 302.90625 181.9375 L 307 175.5625 L 311.125 174.46875 L 311.125 172.21875 L 307.375 171.46875 L 307.375 168.84375 L 313 167.71875 L 316.34375 160.625 L 318.21875 160.25 L 318.21875 155.75 L 313.75 156.125 L 318.28125 148.34375 L 317.84375 148.65625 L 309.625 140.0625 L 309.625 134.4375 L 306.625 134.4375 L 306.25 141.5625 L 294.28125 138.9375 L 296.90625 134.8125 L 287.1875 127.34375 L 283.4375 131.0625 L 283.4375 125.46875 L 273.71875 124.71875 L 268.5 120.59375 z "
         style="fill:#b1d0d2;stroke-width:0.5;stroke-linecap:butt;stroke-linejoin:miter;stroke-opacity:1;fill-opacity:1;stroke-miterlimit:4;stroke-dasharray:none" />
    </g>
    <g
       id="g5161"
       style="fill:#017f82;fill-opacity:1;stroke:#0066cc;stroke-opacity:1">
      <path
         transform="translate(51.504517,207.9041)"
         id="path3019"
         d="M 422.46875 413 L 420.15625 409.09375 L 414.0625 411.75 L 413.03125 416.5 L 409.84375 411.75 L 406.9375 405.65625 L 405.625 398.25 L 401.125 402.75 L 398.46875 399.84375 L 393.4375 399.5625 L 392.9375 401.9375 L 386.3125 399.03125 L 384.1875 396.9375 L 390.8125 390.84375 L 391.0625 382.65625 L 393.1875 381.3125 L 393.71875 377.875 L 390.8125 374.96875 L 386.5625 377.375 L 383.65625 378.6875 L 378.375 378.9375 L 374.40625 370.21875 L 368.34375 370.5 L 368.34375 366.53125 L 363.5625 364.9375 L 362.5 359.90625 L 359.59375 360.71875 L 357.75 357.28125 L 351.40625 357.28125 L 345.0625 360.96875 L 340.03125 358.3125 L 339.5 354.875 L 336.875 357.53125 L 332.09375 355.40625 L 329.46875 357.28125 L 333.6875 363.875 L 322.3125 375.25 L 322.84375 384.25 L 316.53125 393.03125 L 308 386.46875 L 303.28125 386.46875 L 299.53125 390.21875 L 293.53125 389.46875 L 293.15625 391.34375 L 295.78125 395.09375 L 290.5625 398.0625 L 287.5625 396.5625 L 284.1875 400.3125 L 285.6875 402.9375 L 283.8125 404.0625 L 284.5625 409.65625 L 275.59375 410.40625 L 273.34375 412.65625 L 275.96875 418.625 L 275.75 419.46875 L 277.09375 419.375 L 279.71875 425.375 L 277.46875 432.84375 L 281.5625 438.84375 L 293.15625 440.3125 L 293.15625 443.6875 L 302.53125 447.4375 L 305.5 459.03125 L 300.28125 473.96875 L 294.28125 469.5 L 284.5625 484.4375 L 287.9375 485.9375 L 290.1875 482.21875 L 303.28125 482.21875 L 307.75 478.09375 L 314.46875 479.59375 L 314.84375 481.84375 L 324.96875 482.59375 L 330.1875 478.46875 L 335.4375 484.4375 L 345.53125 482.59375 L 357.5 476.96875 L 357.5 470.25 L 372.4375 469.5 L 369.09375 479.21875 L 375.8125 482.96875 L 386.28125 472.875 L 402 472.125 L 401.25 462.375 L 408.34375 459.40625 L 408.34375 455.65625 L 416.5625 452.28125 L 425.90625 438.46875 L 425.90625 432.09375 L 422.5625 430.96875 L 419.9375 419.375 L 422.46875 413 z "
         style="fill:#017f82;stroke:#0066cc;stroke-width:0.5;stroke-linecap:butt;stroke-linejoin:miter;stroke-opacity:1;fill-opacity:1;stroke-miterlimit:4;stroke-dasharray:none" />
      <path
         transform="translate(51.504517,207.9041)"
         id="path2862"
         d="M 430.03125 135.5625 L 425.53125 140.0625 L 427.78125 147.90625 L 412.46875 143.40625 L 408.34375 150.90625 L 405.71875 143.78125 L 399.75 145.65625 L 399.75 149.03125 L 389.65625 147.90625 L 380.3125 153.5 L 377.6875 148.65625 L 373.1875 148.65625 L 368.71875 142.65625 L 361.21875 148.28125 L 362.34375 150.90625 L 353.75 155.75 L 348.5 148.65625 L 344.03125 154.25 L 337.28125 144.15625 L 329.0625 140.4375 L 318.28125 148.34375 L 313.75 156.125 L 318.21875 155.75 L 318.21875 160.25 L 316.34375 160.625 L 313 167.71875 L 307.375 168.84375 L 307.375 171.46875 L 311.125 172.21875 L 311.125 173.21875 L 314.125 172.96875 L 317.46875 181.9375 L 313.375 184.5625 L 318.6875 195.21875 L 321 193.84375 L 325.75 195.71875 L 332.90625 194.90625 L 334.21875 192.28125 L 339.25 194.90625 L 346.125 192.8125 L 347.1875 196.25 L 343.75 199.9375 L 348.75 199.9375 L 349.03125 203.625 L 354.84375 204.96875 L 359.0625 206.28125 L 363.03125 203.125 L 368.0625 201 L 368.875 208.65625 L 367.28125 215 L 368.0625 218.96875 L 372.8125 218.71875 L 373.875 224 L 372.8125 228.21875 L 376.53125 232.46875 L 376.78125 235.375 L 382.625 241.96875 L 386.3125 236.96875 L 388.4375 236.6875 L 388.15625 233 L 392.40625 232.71875 L 396.625 237.5 L 398.75 253.09375 L 405.09375 251.5 L 408 254.40625 L 410.125 254.15625 L 418.5625 262.875 L 423.59375 262.59375 L 426.5 263.9375 L 427.28125 267.375 L 434.15625 270.28125 L 436.8125 267.90625 L 439.46875 267.09375 L 441.84375 258.90625 L 445 259.15625 L 448.96875 260.5 L 450.03125 257.59375 L 446.59375 254.6875 L 447.40625 250.1875 L 450.84375 248.84375 L 452.96875 240.5 L 459.03125 237.21875 L 465.375 234.5625 L 472.25 234.5625 L 479.375 236.15625 L 491.03125 237.21875 L 491.5625 232.1875 L 493.65625 230.625 L 501.0625 230.34375 L 515.09375 230.09375 L 516.40625 229 L 517.15625 223.8125 L 512.3125 220.4375 L 508.1875 221.9375 L 502.1875 218.21875 L 501.84375 212.96875 L 499.96875 211.09375 L 499.21875 197.625 L 490.25 206.625 L 486.875 202.875 L 483.125 192.78125 L 474.53125 197.25 L 471.53125 193.53125 L 470.40625 184.9375 L 465.9375 183.0625 L 465.1875 177.0625 L 450.21875 167.34375 L 457.34375 158 L 448.71875 145.65625 L 449.09375 141.1875 L 430.03125 135.5625 z "
         style="fill:#017f82;stroke:#0066cc;stroke-width:0.5;stroke-linecap:butt;stroke-linejoin:miter;stroke-opacity:1;fill-opacity:1;stroke-miterlimit:4;stroke-dasharray:none" />
      <path
         transform="translate(51.504517,207.9041)"
         id="path3024"
         d="M 323.03125 258.3125 L 327.625 256.78125 L 332.09375 262.59375 L 332.09375 265.78125 L 335 263.40625 L 337.125 266.3125 L 342.6875 266.3125 L 345.84375 262.875 L 345.59375 256.78125 L 351.40625 253.09375 L 350.09375 247.8125 L 353.25 245.6875 L 353.53125 242.5 L 358.5625 245.9375 L 361.46875 245.40625 L 360.9375 238 L 364.625 236.4375 L 369.65625 235.625 L 371.25 237.75 L 372.03125 235.625 L 376.75 235.15625 L 376.53125 232.46875 L 372.8125 228.21875 L 373.875 224 L 372.8125 218.71875 L 368.0625 218.96875 L 367.28125 215 L 368.875 208.65625 L 368.0625 201 L 363.03125 203.125 L 359.0625 206.28125 L 354.84375 204.96875 L 349.03125 203.625 L 348.75 199.9375 L 343.75 199.9375 L 347.1875 196.25 L 346.125 192.8125 L 339.25 194.90625 L 334.21875 192.28125 L 332.90625 194.90625 L 325.75 195.71875 L 321 193.84375 L 318.6875 195.21875 L 320.46875 198.75 L 323.46875 198.75 L 318.96875 204.75 L 317.46875 214.09375 L 313.75 216.34375 L 313.75 223.8125 L 317.84375 225.6875 L 317.84375 227.9375 L 314.84375 229.0625 L 318.59375 237.28125 L 320.84375 242.125 L 320.84375 250 L 317.84375 253.71875 L 317.84375 257.84375 L 323.09375 258.21875 L 323.03125 258.3125 z "
         style="fill:#017f82;stroke:#0066cc;stroke-width:0.5;stroke-linecap:butt;stroke-linejoin:miter;stroke-opacity:1;fill-opacity:1;stroke-miterlimit:4;stroke-dasharray:none" />
      <path
         transform="translate(51.504517,207.9041)"
         id="path3034"
         d="M 392.40625 232.71875 L 388.15625 233 L 388.4375 236.6875 L 386.3125 236.96875 L 382.625 241.96875 L 376.78125 235.375 L 376.75 235.15625 L 372.03125 235.625 L 371.25 237.75 L 369.65625 235.625 L 364.625 236.4375 L 360.9375 238 L 361.4375 245.125 L 361.46875 245.40625 L 358.5625 245.9375 L 353.53125 242.5 L 353.25 245.6875 L 350.09375 247.8125 L 351.40625 253.09375 L 345.59375 256.78125 L 345.84375 262.875 L 342.6875 266.3125 L 337.125 266.3125 L 335 263.40625 L 332.09375 265.78125 L 332.09375 262.59375 L 327.625 256.78125 L 323.03125 258.3125 L 320.84375 261.96875 L 320.84375 264.9375 L 316.71875 267.9375 L 318.21875 270.5625 L 320.09375 270.5625 L 319.34375 273.1875 L 313.375 280.65625 L 316.34375 285.15625 L 317.46875 289.625 L 314.125 294.125 L 310.375 291.125 L 304.75 297.84375 L 309.625 300.84375 L 307.375 304.96875 L 302.53125 306.46875 L 304 310.9375 L 308.875 313.5625 L 308.875 318.0625 L 302.53125 322.90625 L 302.90625 328.90625 L 300.65625 334.5 L 298.78125 336 L 299.90625 340.125 L 297.28125 341.96875 L 296.90625 345.71875 L 300.28125 345.71875 L 301.78125 352.8125 L 298.78125 357.6875 L 299.15625 377.125 L 305.125 380.5 L 308.125 386.46875 L 308 386.46875 L 316.53125 393.03125 L 322.84375 384.25 L 322.3125 375.25 L 333.6875 363.875 L 329.46875 357.28125 L 332.09375 355.40625 L 336.875 357.53125 L 339.5 354.875 L 340.03125 358.3125 L 345.0625 360.96875 L 351.40625 357.28125 L 357.75 357.28125 L 359.59375 360.71875 L 362.5 359.90625 L 363.5625 364.9375 L 368.34375 366.53125 L 368.34375 370.5 L 374.40625 370.21875 L 378.375 378.9375 L 383.65625 378.6875 L 386.5625 377.375 L 390.8125 374.96875 L 393.46875 377.625 L 393.71875 377.375 L 396.875 373.125 L 399 376.03125 L 402.71875 373.40625 L 403.75 370.75 L 405.34375 369.96875 L 407.71875 368.625 L 411.15625 373.125 L 410.625 362.03125 L 407.1875 362.28125 L 404.28125 357.28125 L 404.5625 351.4375 L 401.125 349.0625 L 401.65625 343 L 405.625 342.71875 L 409.59375 337.6875 L 409.84375 326.84375 L 422.53125 324.75 L 425.1875 318.65625 L 424.90625 312.3125 L 420.40625 308.875 L 414.59375 313.375 L 413.28125 308.09375 L 409 307.0625 L 409.09375 306.46875 L 413.9375 300.09375 L 421.8125 297.84375 L 423.3125 293 L 431.15625 290.375 L 435.65625 292.625 L 436.75 284.03125 L 441.625 278.03125 L 437.125 275.78125 L 436.5625 268.125 L 434.15625 270.28125 L 427.28125 267.375 L 426.5 263.9375 L 423.59375 262.59375 L 418.5625 262.875 L 410.125 254.15625 L 408 254.40625 L 405.09375 251.5 L 398.75 253.09375 L 396.625 237.5 L 392.40625 232.71875 z "
         style="fill:#017f82;stroke:#0066cc;stroke-width:0.5;stroke-linecap:butt;stroke-linejoin:miter;stroke-opacity:1;fill-opacity:1;stroke-miterlimit:4;stroke-dasharray:none" />
      <path
         transform="translate(51.504517,207.9041)"
         id="path3093"
         d="M 409 307.0625 L 413.28125 308.09375 L 414.59375 313.375 L 420.40625 308.875 L 424.90625 312.3125 L 425.1875 318.65625 L 422.53125 324.75 L 409.84375 326.84375 L 409.59375 337.6875 L 405.625 342.71875 L 401.65625 343 L 401.125 349.0625 L 404.5625 351.4375 L 404.28125 357.28125 L 407.1875 362.28125 L 410.625 362.03125 L 411.15625 373.125 L 407.71875 368.625 L 405.34375 369.96875 L 403.75 370.75 L 402.71875 373.40625 L 399 376.03125 L 396.875 373.125 L 393.71875 377.375 L 393.46875 377.625 L 393.71875 377.875 L 393.1875 381.3125 L 391.0625 382.65625 L 390.8125 390.84375 L 384.1875 396.9375 L 386.3125 399.03125 L 392.9375 401.9375 L 393.4375 399.5625 L 398.46875 399.84375 L 401.125 402.75 L 405.625 398.25 L 406.9375 405.65625 L 409.84375 411.75 L 413.03125 416.5 L 414.0625 411.75 L 420.15625 409.09375 L 422.46875 413 L 425.90625 404.4375 L 439 403.3125 L 443.875 398.8125 L 456.96875 396.9375 L 460.3125 399.9375 L 475.65625 398.8125 L 482.75 393.59375 L 501.09375 395.46875 L 501.09375 387.59375 L 512.3125 390.21875 L 512.6875 380.875 L 507.8125 376 L 510.8125 367.78125 L 504.0625 357.6875 L 516.40625 352.4375 L 515.65625 345.34375 L 510.4375 342.71875 L 513.78125 338.625 L 519.40625 340.125 L 528.375 331.875 L 522.40625 323.65625 L 529.5 319.53125 L 534.375 318.4375 L 532.125 313.9375 L 543.71875 309.4375 L 541.09375 303.46875 L 535.46875 303.46875 L 537.71875 300.09375 L 529.875 298.59375 L 520.53125 304.21875 L 521.65625 295.25 L 518.28125 289.625 L 524.625 284.03125 L 523.53125 266.8125 L 516.78125 266.8125 L 516.40625 260.46875 L 506.3125 260.09375 L 508.9375 251.875 L 516.78125 250.375 L 516.40625 244 L 509.3125 244.375 L 510.0625 240.28125 L 517.90625 241.75 L 526.875 239.53125 L 526.875 226.0625 L 516.40625 229.0625 L 516.40625 229 L 515.09375 230.09375 L 501.0625 230.34375 L 493.65625 230.625 L 491.5625 232.1875 L 491.03125 237.21875 L 479.375 236.15625 L 472.25 234.5625 L 465.375 234.5625 L 459.03125 237.21875 L 452.96875 240.5 L 450.84375 248.84375 L 447.40625 250.1875 L 446.59375 254.6875 L 450.03125 257.59375 L 448.96875 260.5 L 445 259.15625 L 441.84375 258.90625 L 439.46875 267.09375 L 436.8125 267.90625 L 436.5625 268.125 L 437.125 275.78125 L 441.625 278.03125 L 436.75 284.03125 L 435.65625 292.625 L 431.15625 290.375 L 423.3125 293 L 421.8125 297.84375 L 413.9375 300.09375 L 409.09375 306.46875 L 409 307.0625 z "
         style="fill:#017f82;stroke:#0066cc;stroke-width:0.5;stroke-linecap:butt;stroke-linejoin:miter;stroke-opacity:1;fill-opacity:1;stroke-miterlimit:4;stroke-dasharray:none" />
    </g>
    <g
       id="g5128"
       style="stroke:#0066cc;stroke-opacity:1;fill:#0066cc;fill-opacity:1">
      <path
         id="path2857"
         transform="translate(51.504517,207.9041)"
         d="M 92 147.90625 L 80.40625 153.125 L 69.1875 152.03125 L 68.8125 155.75 L 63.1875 159.875 L 57.96875 153.125 L 57.59375 165.09375 L 63.5625 172.59375 L 58.34375 182.3125 L 68.8125 181.9375 L 70.3125 184.9375 L 65.8125 189.03125 L 70.3125 203.25 L 75.53125 202.875 L 78.125 208.5 L 81.90625 216.71875 L 77.03125 221.9375 L 86 226.4375 L 86 231.28125 L 89.75 232.78125 L 85.625 242.875 L 86 258.96875 L 96.84375 266.0625 L 84.5 282.53125 L 90.8125 287.75 L 93.59375 285.59375 L 98.375 278.46875 L 104.71875 279 L 108.6875 276.625 L 113.96875 276.34375 L 114.21875 268.9375 L 106.5625 267.09375 L 111.0625 259.96875 L 114.75 260.5 L 111.59375 256.78125 L 111.59375 254.15625 L 115.8125 252.8125 L 117.65625 251.25 L 117.65625 246.75 L 111.84375 246.75 L 112.125 244.09375 L 114.5 240.9375 L 114.21875 234.3125 L 115.5625 229.03125 L 117.9375 223.75 L 118.1875 221.09375 L 121.71875 219.75 L 121.75 219.75 L 126.125 222.40625 L 127.96875 219.25 L 130.34375 217.65625 L 130.34375 215.8125 L 134.84375 219.5 L 140.65625 219.5 L 140.65625 222.9375 L 144.09375 221.625 L 147.8125 225.0625 L 151.78125 224.25 L 153.625 222.9375 L 157.84375 222.40625 L 157.84375 218.1875 L 160.25 218.71875 L 161.28125 216.59375 L 163.15625 214.46875 L 160.75 211.84375 L 160.5 209.71875 L 156.8125 208.125 L 157.0625 206.28125 L 160.25 205.75 L 161.28125 203.625 L 164.46875 205.75 L 166.84375 201 L 171.875 198.34375 L 172.65625 193.84375 L 171.0625 185.65625 L 169.21875 185.9375 L 168.96875 182.75 L 169.5 180.09375 L 171.0625 176.65625 L 175.84375 178.53125 L 180.34375 181.15625 L 185.0625 174.9375 L 181.75 169.96875 L 175.75 171.46875 L 174.625 166.96875 L 166.78125 168.46875 L 162.65625 161 L 156.3125 165.84375 L 157.0625 169.21875 L 151.8125 171.84375 L 148.46875 166.96875 L 150.3125 161.75 L 151.0625 156.5 L 147.71875 156.5 L 143.59375 150.15625 L 136.125 152.78125 L 134.625 157.625 L 129 155.375 L 126.03125 160.25 L 121.53125 158.75 L 112.1875 158 L 111.0625 153.125 L 104.34375 149.40625 L 97.96875 150.53125 L 97.09375 149.40625 L 94.59375 151.28125 L 92 147.90625 z "
         style="fill:#008b8b;stroke:#0066cc;stroke-width:0.5;stroke-linecap:butt;stroke-linejoin:miter;stroke-opacity:1;fill-opacity:1;stroke-miterlimit:4;stroke-dasharray:none" />
      <path
         transform="translate(51.504517,207.9041)"
         id="path2918"
         d="M 156.46875 222.59375 L 158.5625 225.6875 L 162.28125 226.625 L 163.78125 229.25 L 166.03125 228.5 L 168.65625 230 L 171.8125 229.8125 L 172.1875 231.28125 L 175.1875 231.09375 L 176.5 234.28125 L 177.25 237.09375 L 179.6875 237.46875 L 181.5625 239.15625 L 183.03125 240.28125 L 183.03125 242.125 L 184.53125 244.1875 L 189.21875 244.1875 L 190.53125 242.6875 L 191.65625 241.03125 L 191.84375 239.53125 L 195.1875 239.90625 L 195.9375 238.78125 L 198.5625 238.78125 L 198.75 240.28125 L 203.25 243.0625 L 206.21875 237.28125 L 204.90625 235.78125 L 207.34375 234.46875 L 209.03125 234.46875 L 212.21875 235.59375 L 214.28125 236.15625 L 219.8125 235.78125 L 219.125 234.65625 L 217.25 223.4375 L 219.875 217.46875 L 221.75 213.71875 L 226.59375 211.09375 L 229.96875 204.75 L 229.21875 194.28125 L 223.625 192.78125 L 222.875 187.90625 L 220.25 183.4375 L 216.125 181.1875 L 211.65625 180.0625 L 210.53125 171.09375 L 206.78125 172.96875 L 202.3125 171.84375 L 200.4375 176.3125 L 186.96875 177.8125 L 185.0625 174.9375 L 180.34375 181.15625 L 175.84375 178.53125 L 171.0625 176.65625 L 169.5 180.09375 L 168.96875 182.75 L 169.21875 185.9375 L 171.0625 185.65625 L 172.65625 193.84375 L 171.875 198.34375 L 166.84375 201 L 164.46875 205.75 L 161.28125 203.625 L 160.25 205.75 L 157.0625 206.28125 L 156.8125 208.125 L 160.5 209.71875 L 160.75 211.84375 L 163.15625 214.46875 L 161.28125 216.59375 L 160.25 218.71875 L 157.84375 218.1875 L 157.84375 222.40625 L 156.46875 222.59375 z "
         style="fill:#008b8b;stroke:#0066cc;stroke-width:0.5;stroke-linecap:butt;stroke-linejoin:miter;stroke-opacity:1;fill-opacity:1;stroke-miterlimit:4;stroke-dasharray:none" />
      <path
         transform="translate(51.504517,207.9041)"
         id="path2928"
         d="M 208.90625 276.34375 L 206.78125 270.9375 L 209.03125 268.3125 L 212.03125 269.4375 L 216.5 263.4375 L 218.75 264.9375 L 222.125 262.34375 L 227.34375 263.8125 L 228.09375 257.09375 L 231.09375 257.84375 L 233.71875 255.96875 L 234.09375 251.5 L 229.59375 250 L 224.75 248.125 L 223.625 242.125 L 219.8125 235.78125 L 214.28125 236.15625 L 212.21875 235.59375 L 209.03125 234.46875 L 207.34375 234.46875 L 204.90625 235.78125 L 206.21875 237.28125 L 203.25 243.0625 L 198.75 240.28125 L 198.5625 238.78125 L 195.9375 238.78125 L 195.1875 239.90625 L 191.84375 239.53125 L 191.65625 241.03125 L 190.53125 242.6875 L 189.21875 244.1875 L 184.53125 244.1875 L 183.03125 242.125 L 183.03125 240.28125 L 181.5625 239.15625 L 179.6875 237.46875 L 177.25 237.09375 L 176.5 234.28125 L 175.1875 231.09375 L 172.1875 231.28125 L 171.8125 229.8125 L 168.65625 230 L 166.03125 228.5 L 163.78125 229.25 L 163.40625 228.625 L 161.28125 230.875 L 161.8125 233.78125 L 159.3125 233.125 L 159.3125 234.96875 L 162.75 236.5625 L 164.875 236.96875 L 164.875 238.8125 L 165.90625 239.875 L 164.875 241.96875 L 163.6875 242.25 L 163.9375 246.09375 L 164.71875 248.1875 L 166.84375 250.3125 L 168.4375 250.1875 L 169.875 252.4375 L 174.65625 253.625 L 175.1875 251.75 L 177.15625 249.375 L 179.28125 249.125 L 180.46875 249.90625 L 181.25 249.25 L 184.03125 249.25 L 184.3125 250.71875 L 185.5 250.96875 L 186.15625 252.28125 L 188.53125 252.6875 L 189.46875 254.15625 L 191.1875 252.6875 L 196.34375 252.6875 L 197 250.5625 L 201.09375 253.21875 L 202.53125 252.4375 L 204.40625 253.875 L 205.96875 255.0625 L 208.5 255.875 L 208.09375 258.5 L 208.5 260.21875 L 207.84375 261.15625 L 207.6875 262.875 L 206.90625 263.53125 L 204.9375 264.0625 L 204.9375 264.59375 L 201.75 265 L 204 267.375 L 204 270 L 202.9375 270.53125 L 203.71875 271.59375 L 202.15625 272.78125 L 202.28125 273.59375 L 204.40625 273.59375 L 205.71875 275.5625 L 208.90625 276.34375 z "
         style="fill:#008b8b;stroke:#0066cc;stroke-width:0.5;stroke-linecap:butt;stroke-linejoin:miter;stroke-opacity:1;fill-opacity:1;stroke-miterlimit:4;stroke-dasharray:none" />
      <path
         transform="translate(51.504517,207.9041)"
         id="path3099"
         d="M 90.8125 287.75 L 91.25 288.125 L 91.25 296.375 L 95.34375 301.59375 L 99.84375 300.84375 L 104.34375 311.6875 L 116.65625 318.0625 L 114.4375 325.15625 L 126.40625 327.03125 L 131.625 336 L 130.5 351.34375 L 138.34375 363.65625 L 143.21875 361.8125 L 146.21875 372.28125 L 158.5625 375.625 L 163.40625 369.8125 L 163.40625 359.9375 L 173.125 344.21875 L 173.5 341.59375 L 166.78125 335.625 L 166.78125 331.875 L 168.28125 330 L 170.90625 331.5 L 175.75 331.875 L 179.5 333.75 L 183.96875 333.75 L 186.96875 331.875 L 186.21875 328.15625 L 189.96875 324.03125 L 192.21875 322.15625 L 189.96875 318.78125 L 189.96875 316.1875 L 194.0625 316.9375 L 196.3125 312.8125 L 191.09375 310.5625 L 189.59375 303.46875 L 186.96875 303.84375 L 183.21875 300.09375 L 183.96875 296.375 L 189.59375 294.875 L 193.3125 287.375 L 199.6875 288.5 L 201.5625 284.78125 L 204.53125 283.65625 L 209.40625 277.65625 L 208.90625 276.34375 L 205.71875 275.5625 L 204.40625 273.59375 L 202.28125 273.59375 L 202.15625 272.78125 L 203.71875 271.59375 L 202.9375 270.53125 L 204 270 L 204 267.375 L 201.75 265 L 204.9375 264.59375 L 204.9375 264.0625 L 206.90625 263.53125 L 207.6875 262.875 L 207.84375 261.15625 L 208.5 260.21875 L 208.09375 258.5 L 208.5 255.875 L 205.96875 255.0625 L 204.40625 253.875 L 202.53125 252.4375 L 201.09375 253.21875 L 197 250.5625 L 196.34375 252.6875 L 191.1875 252.6875 L 189.46875 254.15625 L 188.53125 252.6875 L 186.15625 252.28125 L 185.5 250.96875 L 184.3125 250.71875 L 184.03125 249.25 L 181.25 249.25 L 180.46875 249.90625 L 179.28125 249.125 L 177.15625 249.375 L 175.1875 251.75 L 174.65625 253.625 L 169.875 252.4375 L 168.4375 250.1875 L 166.84375 250.3125 L 164.71875 248.1875 L 163.9375 246.09375 L 163.6875 242.25 L 164.875 241.96875 L 165.90625 239.875 L 164.875 238.8125 L 164.875 236.96875 L 162.75 236.5625 L 159.3125 234.96875 L 159.3125 233.125 L 161.8125 233.78125 L 161.28125 230.875 L 163.40625 228.625 L 163.40625 228.59375 L 162.28125 226.625 L 158.5625 225.6875 L 156.46875 222.59375 L 153.625 222.9375 L 151.78125 224.25 L 147.8125 225.0625 L 144.09375 221.625 L 140.65625 222.9375 L 140.65625 219.5 L 134.84375 219.5 L 130.34375 215.8125 L 130.34375 217.65625 L 127.96875 219.25 L 126.125 222.40625 L 121.75 219.75 L 118.1875 221.09375 L 117.9375 223.75 L 115.5625 229.03125 L 114.21875 234.3125 L 114.5 240.9375 L 112.125 244.09375 L 111.84375 246.75 L 117.65625 246.75 L 117.65625 251.25 L 115.8125 252.8125 L 111.59375 254.15625 L 111.59375 256.78125 L 114.75 260.5 L 111.0625 259.96875 L 106.5625 267.09375 L 114.21875 268.9375 L 113.96875 276.34375 L 108.6875 276.625 L 104.71875 279 L 98.375 278.46875 L 93.59375 285.59375 L 90.8125 287.75 z "
         style="fill:#008b8b;stroke:#0066cc;stroke-width:0.5;stroke-linecap:butt;stroke-linejoin:miter;stroke-opacity:1;fill-opacity:1;stroke-miterlimit:4;stroke-dasharray:none" />
    </g>
    <path
       transform="translate(51.504517,207.9041)"
       id="path3874"
       d="M 258.21875 241.96875 L 267.1875 242.90625 L 271.03125 241.0625 L 275.90625 238.15625 L 282.25 240.25 L 288.875 240.78125 L 290.46875 237.34375 L 290.71875 234.0625 L 288.875 232.0625 L 282.40625 231.8125 L 280.53125 233 L 279.75 235.375 L 278.03125 234.96875 L 278.96875 230 L 278.96875 229.9375 L 278.96875 221.9375 L 275.78125 217.46875 L 273.8125 211.4375 L 257.03125 211.03125 L 253.53125 212.59375 L 249.96875 215.78125 L 247.5625 218.96875 L 240.625 219.5 L 238.375 221.1875 L 236.15625 224.75 L 235.21875 227.5625 L 243.625 235.21875 L 258.21875 241.9375 L 258.21875 241.96875 z "
       style="fill:none;stroke:#000000;stroke-width:0.50000000000000000;stroke-linecap:butt;stroke-linejoin:miter;stroke-opacity:0.23529412000000000;fill-opacity:0.47115385999999998;stroke-miterlimit:4;stroke-dasharray:none" />
    <path
       style="fill:none;stroke:#000000;stroke-width:1.8;stroke-linecap:butt;stroke-linejoin:miter;stroke-opacity:1;fill-opacity:0.29326922000000000;stroke-miterlimit:4;stroke-dasharray:none"
       d="M 115.5625 92.5625 L 114.8125 97.8125 L 107.3125 104.15625 L 106.9375 118 L 102.84375 127.71875 L 104.71875 129.96875 L 97.21875 140.4375 L 97.59375 149.03125 L 97.09375 149.40625 L 97.96875 150.53125 L 104.34375 149.40625 L 111.0625 153.125 L 112.1875 158 L 121.53125 158.75 L 126.03125 160.25 L 129 155.375 L 134.625 157.625 L 136.125 152.78125 L 143.59375 150.15625 L 147.71875 156.5 L 151.0625 156.5 L 150.3125 161.75 L 148.46875 166.96875 L 151.8125 171.84375 L 157.0625 169.21875 L 156.3125 165.84375 L 162.65625 161 L 166.78125 168.46875 L 174.625 166.96875 L 175.75 171.46875 L 181.75 169.96875 L 186.96875 177.8125 L 200.4375 176.3125 L 202.3125 171.84375 L 206.78125 172.96875 L 210.0625 171.34375 L 210.53125 171.09375 L 211.65625 180.0625 L 216.125 181.1875 L 220.25 183.4375 L 222.875 187.90625 L 223.625 192.78125 L 229.21875 194.28125 L 229.96875 204.75 L 227.59375 209.1875 L 232.21875 206.25 L 236.34375 202.875 L 241.1875 198.375 L 243.4375 196.53125 L 246.0625 195.78125 L 249.03125 195.40625 L 248.65625 191.28125 L 248.78125 191.15625 L 250.90625 189.03125 L 255.40625 192.40625 L 259.5 193.15625 L 261.75 189.03125 L 264.375 189.40625 L 266.25 185.6875 L 271.09375 187.15625 L 275.96875 192.03125 L 281.21875 190.90625 L 286.4375 193.53125 L 290.9375 188.28125 L 298.40625 185.3125 L 302.90625 181.9375 L 307 175.5625 L 311.125 174.46875 L 311.125 172.21875 L 307.375 171.46875 L 307.375 168.84375 L 313 167.71875 L 316.34375 160.625 L 318.21875 160.25 L 318.21875 155.75 L 313.75 156.125 L 318.28125 148.34375 L 317.84375 148.65625 L 309.625 140.0625 L 309.625 134.4375 L 306.625 134.4375 L 306.25 141.5625 L 294.28125 138.9375 L 296.90625 134.8125 L 287.1875 127.34375 L 283.4375 131.0625 L 283.4375 125.46875 L 273.71875 124.71875 L 268.5 120.59375 L 264.75 123.59375 L 264.6875 123.53125 L 264.6875 123.5 L 255.78125 111.625 L 250.90625 112 L 245.6875 120.59375 L 232.96875 123.96875 L 235.96875 119.125 L 231.46875 113.125 L 219.875 120.59375 L 218.75 116.875 L 219.125 114.25 L 215.03125 110.875 L 203.8125 110.125 L 203.4375 104.53125 L 199.6875 104.15625 L 181 115 L 176.125 112.375 L 168.65625 118.75 L 166.03125 116.125 L 156.3125 120.21875 L 152.9375 115.75 L 144.71875 117.625 L 136.125 111.25 L 132 111.625 L 128.25 114.25 L 123.40625 112.75 L 118.53125 105.65625 L 123.40625 98.53125 L 118.90625 96.3125 L 118.15625 92.9375 L 115.5625 92.5625 z "
       transform="translate(51.504517,207.9041)"
       id="path3876" />
    <path
       style="fill:none;stroke:#000000;stroke-width:1.8;stroke-linecap:butt;stroke-linejoin:miter;stroke-opacity:1;fill-opacity:0.54326922000000000;stroke-miterlimit:4;stroke-dasharray:none"
       d="M 92 147.90625 L 80.40625 153.125 L 69.1875 152.03125 L 68.8125 155.75 L 63.1875 159.875 L 57.96875 153.125 L 57.59375 165.09375 L 63.5625 172.59375 L 58.34375 182.3125 L 68.8125 181.9375 L 70.3125 184.9375 L 65.8125 189.03125 L 70.3125 203.25 L 75.53125 202.875 L 78.125 208.5 L 81.90625 216.71875 L 77.03125 221.9375 L 86 226.4375 L 86 231.28125 L 89.75 232.78125 L 85.625 242.875 L 86 258.96875 L 96.84375 266.0625 L 84.5 282.53125 L 90.8125 287.75 L 91.25 288.125 L 91.25 296.375 L 95.34375 301.59375 L 99.84375 300.84375 L 104.34375 311.6875 L 116.65625 318.0625 L 114.4375 325.15625 L 126.40625 327.03125 L 131.625 336 L 130.5 351.34375 L 138.34375 363.65625 L 143.21875 361.8125 L 146.21875 372.28125 L 158.5625 375.625 L 163.40625 369.8125 L 163.40625 359.9375 L 173.125 344.21875 L 173.5 341.59375 L 166.78125 335.625 L 166.78125 331.875 L 168.28125 330 L 170.90625 331.5 L 175.75 331.875 L 179.5 333.75 L 183.96875 333.75 L 186.96875 331.875 L 186.21875 328.15625 L 189.96875 324.03125 L 192.21875 322.15625 L 189.96875 318.78125 L 189.96875 316.1875 L 194.0625 316.9375 L 196.3125 312.8125 L 191.09375 310.5625 L 189.59375 303.46875 L 186.96875 303.84375 L 183.21875 300.09375 L 183.96875 296.375 L 189.59375 294.875 L 193.3125 287.375 L 199.6875 288.5 L 201.5625 284.78125 L 204.53125 283.65625 L 209.40625 277.65625 L 208.90625 276.34375 L 206.78125 270.9375 L 209.03125 268.3125 L 212.03125 269.4375 L 216.5 263.4375 L 218.75 264.9375 L 222.125 262.34375 L 227.34375 263.8125 L 228.09375 257.09375 L 231.09375 257.84375 L 233.71875 255.96875 L 234.09375 251.5 L 229.59375 250 L 224.75 248.125 L 223.625 242.125 L 219.8125 235.78125 L 219.125 234.65625 L 217.25 223.4375 L 219.875 217.46875 L 221.75 213.71875 L 226.59375 211.09375 L 229.96875 204.75 L 229.21875 194.28125 L 223.625 192.78125 L 222.875 187.90625 L 220.25 183.4375 L 216.125 181.1875 L 211.65625 180.0625 L 210.53125 171.09375 L 206.78125 172.96875 L 202.3125 171.84375 L 200.4375 176.3125 L 186.96875 177.8125 L 185.0625 174.9375 L 181.75 169.96875 L 175.75 171.46875 L 174.625 166.96875 L 166.78125 168.46875 L 162.65625 161 L 156.3125 165.84375 L 157.0625 169.21875 L 151.8125 171.84375 L 148.46875 166.96875 L 150.3125 161.75 L 151.0625 156.5 L 147.71875 156.5 L 143.59375 150.15625 L 136.125 152.78125 L 134.625 157.625 L 129 155.375 L 126.03125 160.25 L 121.53125 158.75 L 112.1875 158 L 111.0625 153.125 L 104.34375 149.40625 L 97.96875 150.53125 L 97.09375 149.40625 L 94.59375 151.28125 L 92 147.90625 z "
       transform="translate(51.504517,207.9041)"
       id="path3949" />
    <path
       style="fill:none;stroke:#000000;stroke-width:1.8;stroke-linecap:butt;stroke-linejoin:miter;stroke-opacity:1;fill-opacity:0.37980765000000000;stroke-miterlimit:4;stroke-dasharray:none"
       d="M 233.75 255.65625 L 233.71875 255.96875 L 231.09375 257.84375 L 228.09375 257.09375 L 227.34375 263.8125 L 222.125 262.34375 L 218.75 264.9375 L 216.5 263.4375 L 212.03125 269.4375 L 209.03125 268.3125 L 206.78125 270.9375 L 209.40625 277.65625 L 204.53125 283.65625 L 201.5625 284.78125 L 199.6875 288.5 L 193.3125 287.375 L 189.59375 294.875 L 183.96875 296.375 L 183.21875 300.09375 L 186.96875 303.84375 L 189.59375 303.46875 L 191.09375 310.5625 L 196.3125 312.8125 L 194.0625 316.9375 L 193.90625 316.90625 L 189.96875 316.1875 L 189.96875 318.78125 L 192.21875 322.15625 L 189.96875 324.03125 L 186.21875 328.15625 L 186.96875 331.875 L 183.96875 333.75 L 179.5 333.75 L 175.75 331.875 L 170.90625 331.5 L 168.28125 330 L 166.78125 331.875 L 166.78125 335.625 L 173.5 341.59375 L 173.125 344.21875 L 163.40625 359.9375 L 163.40625 369.8125 L 164.15625 368.90625 L 168.65625 375.25 L 166.03125 385.71875 L 176.5 386.46875 L 179.125 401.0625 L 174.25 408.90625 L 175.75 413.03125 L 170.90625 420.5 L 176.875 428 L 194.0625 428.75 L 196.6875 425 L 202.6875 425 L 204.53125 420.875 L 207.90625 423.5 L 216.875 422 L 218 418.25 L 223.625 419.375 L 230.71875 408.53125 L 237.4375 412.28125 L 238.1875 425 L 251.28125 419.75 L 257.28125 408.90625 L 257.34375 409 L 265.125 420.125 L 275.75 419.46875 L 275.96875 418.625 L 273.34375 412.65625 L 275.59375 410.40625 L 284.5625 409.65625 L 283.8125 404.0625 L 285.6875 402.9375 L 284.1875 400.3125 L 287.5625 396.5625 L 290.5625 398.0625 L 295.78125 395.09375 L 293.15625 391.34375 L 293.53125 389.46875 L 299.53125 390.21875 L 303.28125 386.46875 L 308.125 386.46875 L 305.125 380.5 L 299.15625 377.125 L 298.78125 357.6875 L 301.78125 352.8125 L 300.28125 345.71875 L 296.90625 345.71875 L 297.28125 341.96875 L 299.90625 340.125 L 298.78125 336 L 300.65625 334.5 L 302.90625 328.90625 L 302.53125 322.90625 L 308.875 318.0625 L 308.875 313.5625 L 304 310.9375 L 302.53125 306.46875 L 307.375 304.96875 L 309.625 300.84375 L 304.75 297.84375 L 310.375 291.125 L 314.125 294.125 L 317.46875 289.625 L 316.59375 286.125 L 310.75 287 L 305.5 282.90625 L 304.375 278.78125 L 300.65625 270.5625 L 287.1875 273.9375 L 287.1875 277.65625 L 283.4375 276.90625 L 278.21875 277.28125 L 277.46875 275.03125 L 276.1875 275.15625 L 269.625 275.78125 L 267 267.5625 L 261.75 267.5625 L 258.78125 264.1875 L 255.03125 265.6875 L 255.03125 272.0625 L 252.03125 272.4375 L 251.28125 268.3125 L 248.28125 271.3125 L 246.0625 268.6875 L 249.03125 265.3125 L 245.3125 261.21875 L 240.0625 261.96875 L 234.46875 255.96875 L 233.75 255.65625 z "
       transform="translate(51.504517,207.9041)"
       id="path3958" />
    <path
       style="fill:none;stroke:#000000;stroke-width:1.8;stroke-linecap:butt;stroke-linejoin:miter;stroke-opacity:1;fill-opacity:0.55686276999999995;stroke-miterlimit:4;stroke-dasharray:none"
       d="M 430.03125 135.5625 L 425.53125 140.0625 L 427.78125 147.90625 L 412.46875 143.40625 L 408.34375 150.90625 L 405.71875 143.78125 L 399.75 145.65625 L 399.75 149.03125 L 389.65625 147.90625 L 380.3125 153.5 L 377.6875 148.65625 L 373.1875 148.65625 L 368.71875 142.65625 L 361.21875 148.28125 L 362.34375 150.90625 L 353.75 155.75 L 348.5 148.65625 L 344.03125 154.25 L 337.28125 144.15625 L 329.0625 140.4375 L 318.28125 148.34375 L 313.75 156.125 L 318.21875 155.75 L 318.21875 160.25 L 316.34375 160.625 L 313 167.71875 L 307.375 168.84375 L 307.375 171.46875 L 311.125 172.21875 L 311.125 173.21875 L 314.125 172.96875 L 317.46875 181.9375 L 313.375 184.5625 L 318.6875 195.21875 L 320.46875 198.75 L 323.46875 198.75 L 318.96875 204.75 L 317.46875 214.09375 L 313.75 216.34375 L 313.75 223.8125 L 317.84375 225.6875 L 317.84375 227.9375 L 314.84375 229.0625 L 318.59375 237.28125 L 320.84375 242.125 L 320.84375 250 L 317.84375 253.71875 L 317.84375 257.84375 L 323.09375 258.21875 L 323.03125 258.3125 L 320.84375 261.96875 L 320.84375 264.9375 L 316.71875 267.9375 L 318.21875 270.5625 L 320.09375 270.5625 L 319.34375 273.1875 L 313.375 280.65625 L 316.34375 285.15625 L 317.46875 289.625 L 314.125 294.125 L 310.375 291.125 L 304.75 297.84375 L 309.625 300.84375 L 307.375 304.96875 L 302.53125 306.46875 L 304 310.9375 L 308.875 313.5625 L 308.875 318.0625 L 302.53125 322.90625 L 302.90625 328.90625 L 300.65625 334.5 L 298.78125 336 L 299.90625 340.125 L 297.28125 341.96875 L 296.90625 345.71875 L 300.28125 345.71875 L 301.78125 352.8125 L 298.78125 357.6875 L 299.15625 377.125 L 305.125 380.5 L 308.125 386.46875 L 308 386.46875 L 303.28125 386.46875 L 299.53125 390.21875 L 293.53125 389.46875 L 293.15625 391.34375 L 295.78125 395.09375 L 290.5625 398.0625 L 287.5625 396.5625 L 284.1875 400.3125 L 285.6875 402.9375 L 283.8125 404.0625 L 284.5625 409.65625 L 275.59375 410.40625 L 273.34375 412.65625 L 275.96875 418.625 L 275.75 419.46875 L 277.09375 419.375 L 279.71875 425.375 L 277.46875 432.84375 L 281.5625 438.84375 L 293.15625 440.3125 L 293.15625 443.6875 L 302.53125 447.4375 L 305.5 459.03125 L 300.28125 473.96875 L 294.28125 469.5 L 284.5625 484.4375 L 287.9375 485.9375 L 290.1875 482.21875 L 303.28125 482.21875 L 307.75 478.09375 L 314.46875 479.59375 L 314.84375 481.84375 L 324.96875 482.59375 L 330.1875 478.46875 L 335.4375 484.4375 L 345.53125 482.59375 L 357.5 476.96875 L 357.5 470.25 L 372.4375 469.5 L 369.09375 479.21875 L 375.8125 482.96875 L 386.28125 472.875 L 402 472.125 L 401.25 462.375 L 408.34375 459.40625 L 408.34375 455.65625 L 416.5625 452.28125 L 425.90625 438.46875 L 425.90625 432.09375 L 422.5625 430.96875 L 419.9375 419.375 L 422.46875 413 L 425.90625 404.4375 L 439 403.3125 L 443.875 398.8125 L 456.96875 396.9375 L 460.3125 399.9375 L 475.65625 398.8125 L 482.75 393.59375 L 501.09375 395.46875 L 501.09375 387.59375 L 512.3125 390.21875 L 512.6875 380.875 L 507.8125 376 L 510.8125 367.78125 L 504.0625 357.6875 L 516.40625 352.4375 L 515.65625 345.34375 L 510.4375 342.71875 L 513.78125 338.625 L 519.40625 340.125 L 528.375 331.875 L 522.40625 323.65625 L 529.5 319.53125 L 534.375 318.4375 L 532.125 313.9375 L 543.71875 309.4375 L 541.09375 303.46875 L 535.46875 303.46875 L 537.71875 300.09375 L 529.875 298.59375 L 520.53125 304.21875 L 521.65625 295.25 L 518.28125 289.625 L 524.625 284.03125 L 523.53125 266.8125 L 516.78125 266.8125 L 516.40625 260.46875 L 506.3125 260.09375 L 508.9375 251.875 L 516.78125 250.375 L 516.40625 244 L 509.3125 244.375 L 510.0625 240.28125 L 517.90625 241.75 L 526.875 239.53125 L 526.875 226.0625 L 516.40625 229.0625 L 516.40625 229 L 517.15625 223.8125 L 512.3125 220.4375 L 508.1875 221.9375 L 502.1875 218.21875 L 501.84375 212.96875 L 499.96875 211.09375 L 499.21875 197.625 L 490.25 206.625 L 486.875 202.875 L 483.125 192.78125 L 474.53125 197.25 L 471.53125 193.53125 L 470.40625 184.9375 L 465.9375 183.0625 L 465.1875 177.0625 L 450.21875 167.34375 L 457.34375 158 L 448.71875 145.65625 L 449.09375 141.1875 L 430.03125 135.5625 z "
       transform="translate(51.504517,207.9041)"
       id="path3965" />
    <path
       style="fill:none;stroke:#000000;stroke-width:1.8;stroke-linecap:butt;stroke-linejoin:miter;stroke-opacity:1;fill-opacity:0.50961535999999996;stroke-miterlimit:4;stroke-dasharray:none"
       d="M 314.125 172.96875 L 311.125 173.21875 L 311.125 174.46875 L 307 175.5625 L 302.90625 181.9375 L 298.40625 185.3125 L 290.9375 188.28125 L 286.4375 193.53125 L 286.1875 193.40625 L 281.21875 190.90625 L 275.96875 192.03125 L 275.90625 191.96875 L 271.09375 187.15625 L 266.25 185.6875 L 264.375 189.40625 L 261.75 189.03125 L 259.5 193.15625 L 255.40625 192.40625 L 250.90625 189.03125 L 248.65625 191.28125 L 249.03125 195.40625 L 254.5625 195.5 L 256.4375 196.0625 L 258.21875 196.90625 L 259.59375 198.28125 L 260.25 199.125 L 260.25 201.84375 L 259.3125 204 L 258.03125 205.40625 L 255.6875 207 L 254.9375 207.5625 L 257.09375 211 L 257.03125 211.03125 L 273.8125 211.4375 L 275.78125 217.46875 L 278.96875 221.9375 L 278.96875 230 L 283.625 230.53125 L 286.25 228.875 L 289.8125 225.6875 L 297.34375 225.5 L 297.65625 225.5 L 300.46875 227.5625 L 306.25 231.46875 L 310.5625 234.84375 L 310.75 237.09375 L 316.71875 242.6875 L 320.84375 244.0625 L 320.84375 242.125 L 318.59375 237.28125 L 314.84375 229.0625 L 317.84375 227.9375 L 317.84375 225.6875 L 313.75 223.8125 L 313.75 216.34375 L 317.46875 214.09375 L 318.96875 204.75 L 323.46875 198.75 L 320.46875 198.75 L 313.375 184.5625 L 317.46875 181.9375 L 314.125 172.96875 z "
       transform="translate(51.504517,207.9041)"
       id="path3976" />
    <path
       style="fill:#03a5a9;stroke:#000000;stroke-width:1.8;stroke-linecap:butt;stroke-linejoin:miter;stroke-opacity:1;fill-opacity:1;stroke-miterlimit:4;stroke-dasharray:none"
       d="M 249.03125 195.40625 L 246.0625 195.78125 L 243.4375 196.53125 L 241.1875 198.375 L 236.34375 202.875 L 232.21875 206.25 L 227.59375 209.1875 L 226.59375 211.09375 L 221.75 213.71875 L 219.875 217.46875 L 217.25 223.4375 L 218.3125 229.84375 L 219.125 234.65625 L 223.625 242.125 L 224.75 248.125 L 229.59375 250 L 234.09375 251.5 L 233.96875 253.03125 L 233.75 255.65625 L 234.46875 255.96875 L 240.0625 261.96875 L 245.3125 261.21875 L 249.03125 265.3125 L 246.0625 268.6875 L 248.28125 271.3125 L 251.28125 268.3125 L 252.03125 272.4375 L 255.03125 272.0625 L 255.03125 265.6875 L 256.875 264.9375 L 255.40625 261.78125 L 257.09375 256.71875 L 258.40625 252.96875 L 256.71875 250.5625 L 257.28125 246.625 L 258.40625 244.5625 L 258.21875 241.9375 L 248 237.21875 L 243.625 235.21875 L 235.34375 227.65625 L 235.21875 227.5625 L 236.15625 224.75 L 238.375 221.1875 L 240.625 219.5 L 247.5625 218.96875 L 249.96875 215.78125 L 253.53125 212.59375 L 257.09375 211 L 254.9375 207.5625 L 255.6875 207 L 258.03125 205.40625 L 259.3125 204 L 260.25 201.84375 L 260.25 199.125 L 259.59375 198.28125 L 258.21875 196.90625 L 256.4375 196.0625 L 254.5625 195.5 L 249.03125 195.40625 z "
       transform="translate(51.504517,207.9041)"
       id="path3997" />
    <path
       style="fill:#03a5a9;stroke:#000000;stroke-width:1.8;stroke-linecap:butt;stroke-linejoin:miter;stroke-opacity:1;fill-opacity:1;stroke-miterlimit:4;stroke-dasharray:none"
       d="M 297.65625 225.5 L 289.8125 225.6875 L 286.25 228.875 L 283.625 230.53125 L 278.96875 230 L 278.03125 234.96875 L 279.75 235.375 L 280.53125 233 L 282.40625 231.8125 L 288.875 232.0625 L 290.71875 234.0625 L 290.46875 237.34375 L 288.875 240.75 L 288.875 240.78125 L 282.25 240.25 L 275.90625 238.15625 L 271.03125 241.0625 L 267.46875 242.78125 L 267.1875 242.90625 L 258.21875 241.96875 L 258.40625 244.5625 L 257.28125 246.625 L 256.71875 250.5625 L 258.40625 252.96875 L 257.09375 256.71875 L 255.40625 261.78125 L 256.875 264.9375 L 258.78125 264.1875 L 261.75 267.5625 L 266.8125 267.5625 L 267 267.5625 L 269.625 275.78125 L 277.46875 275.03125 L 278.21875 277.28125 L 283.4375 276.90625 L 287.1875 277.65625 L 287.1875 273.9375 L 300.65625 270.5625 L 304.375 278.78125 L 305.5 282.90625 L 310.75 287 L 316.59375 286.125 L 316.34375 285.15625 L 313.375 280.65625 L 319.34375 273.1875 L 320.09375 270.5625 L 318.21875 270.5625 L 316.71875 267.9375 L 320.84375 264.9375 L 320.84375 261.96875 L 321.0625 261.59375 L 323.09375 258.21875 L 317.84375 257.84375 L 317.84375 253.71875 L 320.84375 250 L 320.84375 244.0625 L 316.71875 242.6875 L 310.75 237.09375 L 310.5625 234.84375 L 306.25 231.46875 L 300.46875 227.5625 L 297.65625 225.5 z "
       transform="translate(51.504517,207.9041)"
       id="path4004" />
    <path
       transform="translate(51.504517,207.9041)"
       id="path4011"
       d="M 258.21875 241.96875 L 267.1875 242.90625 L 271.03125 241.0625 L 275.90625 238.15625 L 282.25 240.25 L 288.875 240.78125 L 290.46875 237.34375 L 290.71875 234.0625 L 288.875 232.0625 L 282.40625 231.8125 L 280.53125 233 L 279.75 235.375 L 278.03125 234.96875 L 278.96875 230 L 278.96875 229.9375 L 278.96875 221.9375 L 275.78125 217.46875 L 273.8125 211.4375 L 257.03125 211.03125 L 253.53125 212.59375 L 249.96875 215.78125 L 247.5625 218.96875 L 240.625 219.5 L 238.375 221.1875 L 236.15625 224.75 L 235.21875 227.5625 L 243.625 235.21875 L 258.21875 241.9375 L 258.21875 241.96875 z "
       style="fill:none;stroke:#000000;stroke-width:1.8;stroke-linecap:butt;stroke-linejoin:miter;stroke-opacity:1;fill-opacity:0.47115385999999998;stroke-miterlimit:4;stroke-dasharray:none" />
    <text
       xml:space="preserve"
       style="font-size:12px;font-style:normal;font-weight:normal;fill:#000000;fill-opacity:1;stroke:none;font-family:Arial Rounded MT Bold;-inkscape-font-specification:Arial Rounded MT Bold"
       x="72.352943"
       y="490"
       id="text5258"
       transform="translate(51.504517,207.9041)"><tspan
         sodipodi:role="line"
         id="tspan5260"
         x="72.352943"
         y="490" /></text>
  </g>
</svg>
