<?xml version="1.0" encoding="UTF-8"?>
<svg id="Calque_1" xmlns="http://www.w3.org/2000/svg" version="1.1" viewBox="0 0 407.7 384.1">
  <!-- Generator: Adobe Illustrator 29.0.0, SVG Export Plug-In . SVG Version: 2.1.0 Build 186)  -->
  <defs>
    <style>
      .st0 {
        fill: #835c9e;
      }

      .st1 {
        fill: #fff;
      }

      .st2 {
        fill: #237081;
      }

      .st3 {
        fill: none;
        stroke: #fff;
        stroke-miterlimit: 10;
        stroke-width: 4px;
      }

      .st4 {
        fill: #b9cfd1;
      }
    </style>
  </defs>
  <circle class="st1" cx="203.8" cy="192.1" r="175.3"/>
  <polygon class="st4" points="300 116.8 218.6 70.8 128.6 95.9 82.6 177.3 107.7 267.4 189.1 313.3 279.1 288.3 325.1 206.8 300 116.8"/>
  <polygon class="st0" points="170.5 217.8 147.4 204.8 121.8 211.9 108.8 235 115.9 260.5 139 273.6 164.5 266.5 177.6 243.4 170.5 217.8"/>
  <path class="st3" d="M168.5,229.3"/>
  <g>
    <path class="st1" d="M170.4,271.9c.8.4,1.1,1.1,1.1,2.1,0,1.1-.3,2.1-.8,3.3-.5,1.1-1.1,2.1-1.8,2.8-.7.8-1.5,1-2.3.7-.8-.4-1.1-1.1-1.1-2.1,0-1,.3-2.1.7-3.2.5-1.1,1.1-2.1,1.8-2.8.7-.8,1.5-1,2.3-.7ZM169.6,273.8c-.2,0-.4,0-.5.1-.2.1-.4.3-.6.6-.2.2-.3.5-.5.8-.1.3-.3.5-.4.7,0,.2-.2.5-.3.7,0,.3-.2.6-.2.9,0,.3,0,.6,0,.8,0,.3.1.4.3.5.2,0,.4,0,.6-.1.2-.1.4-.3.5-.6.4-.6.6-1.1.8-1.5.2-.5.4-1,.5-1.7,0-.3,0-.6,0-.8,0-.2-.1-.4-.3-.5Z"/>
    <path class="st1" d="M173,275.4l.7-1.9,2.2.8-3,8.5-1.4-.5,2.3-6.6-.8-.3Z"/>
    <path class="st1" d="M179.9,275.3c.8.3,1.2.9,1.3,2,0,1.1,0,2.2-.4,3.3-.3,1.2-.8,2.2-1.5,3-.6.9-1.4,1.2-2.2,1-.8-.3-1.2-.9-1.3-2-.1-1,0-2.1.4-3.3.3-1.2.8-2.2,1.5-3,.6-.8,1.4-1.2,2.2-1ZM179.3,277.2c-.2,0-.4,0-.5.2-.2.2-.3.4-.5.6-.1.3-.3.5-.4.8-.1.3-.2.5-.3.8,0,.2-.1.5-.2.8,0,.3,0,.6-.1.9,0,.3,0,.6,0,.8,0,.2.2.4.3.4.2,0,.4,0,.6-.2.2-.2.3-.4.5-.6.3-.6.5-1.1.6-1.6.1-.5.2-1,.3-1.7,0-.3,0-.6,0-.8,0-.2-.2-.4-.4-.4Z"/>
    <path class="st1" d="M184.8,276.5c.8.2,1.3.9,1.4,1.9.2,1,0,2.2-.2,3.4-.3,1.2-.7,2.2-1.3,3.1-.6.9-1.3,1.3-2.1,1.1-.8-.2-1.3-.9-1.4-1.9-.2-1-.1-2.1.2-3.3.3-1.2.7-2.2,1.3-3.1.6-.9,1.3-1.2,2.1-1.1ZM184.4,278.5c-.2,0-.4,0-.5.2-.2.2-.3.4-.4.7-.1.3-.2.6-.3.9,0,.3-.2.5-.2.8,0,.2,0,.5-.1.8,0,.3,0,.6,0,.9,0,.3,0,.6.1.8,0,.2.2.4.4.4.2,0,.4,0,.5-.2.2-.2.3-.4.4-.7.3-.6.5-1.2.6-1.6.1-.5.2-1.1.2-1.7,0-.3,0-.6-.1-.8,0-.2-.2-.4-.4-.4Z"/>
    <path class="st1" d="M189.8,277.5c.8.2,1.3.8,1.6,1.8.2,1,.2,2.2,0,3.4-.2,1.2-.6,2.3-1.1,3.1-.5.9-1.2,1.3-2.1,1.2-.8-.2-1.3-.8-1.5-1.8-.2-1-.2-2.1,0-3.3.2-1.2.6-2.3,1.1-3.2.5-.9,1.2-1.3,2.1-1.2ZM189.4,279.5c-.2,0-.4,0-.5.2-.2.2-.3.4-.4.7-.1.3-.2.6-.3.9,0,.3-.1.6-.2.8,0,.2,0,.5,0,.8,0,.3,0,.6,0,.9,0,.3,0,.6.2.8,0,.2.2.4.4.4.2,0,.4,0,.5-.2.2-.2.3-.4.4-.7.2-.6.4-1.2.5-1.7,0-.5.1-1.1.1-1.7,0-.3,0-.6-.2-.8,0-.2-.2-.3-.4-.4Z"/>
    <path class="st1" d="M194.8,278.2c.8.1,1.4.7,1.7,1.7.3,1,.3,2.1.2,3.3-.1,1.2-.4,2.3-.9,3.2-.5,1-1.2,1.4-2,1.4-.8-.1-1.4-.7-1.7-1.7-.3-1-.4-2.1-.2-3.3.1-1.2.4-2.3.9-3.2.5-.9,1.1-1.4,2-1.3ZM194.6,280.2c-.2,0-.3,0-.5.3-.1.2-.3.4-.4.7,0,.3-.2.6-.2.9,0,.3-.1.6-.1.8,0,.2,0,.5,0,.8,0,.3,0,.6,0,.9,0,.3.1.6.2.8,0,.2.2.4.4.4.2,0,.4,0,.5-.3.1-.2.3-.4.4-.7.2-.6.3-1.2.4-1.7,0-.5,0-1.1,0-1.7,0-.3,0-.6-.2-.8-.1-.2-.3-.3-.4-.4Z"/>
    <path class="st1" d="M198.3,280.8v-2c0,0,2.4.1,2.4.1l-.4,9h-1.5c0,0,.3-7.1.3-7.1h-.8Z"/>
    <path class="st1" d="M204.9,278.6c.8,0,1.5.5,1.8,1.5.4,1,.6,2.1.6,3.3,0,1.2-.2,2.3-.5,3.3-.4,1-1,1.5-1.8,1.6-.8,0-1.5-.5-1.8-1.5-.4-1-.6-2.1-.6-3.3,0-1.2.2-2.3.5-3.3.4-1,1-1.5,1.8-1.6ZM204.9,280.7c-.2,0-.3.1-.5.3-.1.2-.2.5-.3.8,0,.3-.1.6-.1.9,0,.3,0,.6,0,.8,0,.2,0,.5,0,.8,0,.3,0,.6.2.9,0,.3.2.6.3.7.1.2.3.3.5.3.2,0,.4-.1.5-.3.1-.2.2-.5.3-.8.1-.7.2-1.2.2-1.7,0-.5,0-1.1-.2-1.7,0-.3-.2-.6-.3-.7-.1-.2-.3-.3-.5-.3Z"/>
    <path class="st1" d="M209.9,278.4c.8,0,1.5.4,1.9,1.4.5,1,.7,2,.8,3.3,0,1.2,0,2.3-.3,3.3-.3,1-.9,1.6-1.7,1.7-.8,0-1.5-.4-1.9-1.4-.5-.9-.7-2-.8-3.2,0-1.2,0-2.3.3-3.3.3-1,.9-1.6,1.7-1.7ZM210.1,280.5c-.2,0-.3.1-.4.3-.1.2-.2.5-.2.8,0,.3,0,.6,0,.9,0,.3,0,.6,0,.8,0,.2,0,.5.1.8,0,.3.1.6.2.9,0,.3.2.5.3.7.1.2.3.3.5.3.2,0,.3-.1.5-.4.1-.2.2-.5.2-.8,0-.7,0-1.2,0-1.7,0-.5-.1-1.1-.3-1.7,0-.3-.2-.5-.3-.7-.1-.2-.3-.3-.5-.3Z"/>
    <path class="st1" d="M213.9,280.4l-.3-2,2.3-.3,1.2,8.9-1.5.2-.9-6.9h-.8Z"/>
    <path class="st1" d="M220,277.1c.8-.1,1.5.3,2.1,1.2.6.9,1,1.9,1.2,3.1.2,1.2.3,2.3,0,3.3-.2,1.1-.7,1.7-1.5,1.9-.8.1-1.5-.3-2.1-1.2-.6-.9-1-1.9-1.2-3.1-.2-1.2-.3-2.3,0-3.4.2-1,.7-1.7,1.5-1.9ZM220.3,279.1c-.2,0-.3.2-.4.4,0,.2-.1.5-.1.8,0,.3,0,.6,0,.9,0,.3,0,.6.1.8,0,.2.1.5.2.8,0,.3.2.6.3.9.1.3.3.5.4.7.2.2.3.3.5.2.2,0,.3-.2.4-.4,0-.2.1-.5.1-.8,0-.7,0-1.2-.1-1.7,0-.5-.3-1-.5-1.7-.1-.3-.3-.5-.4-.7-.2-.2-.3-.2-.5-.2Z"/>
    <path class="st1" d="M224.9,276c.8-.2,1.5.2,2.1,1,.6.9,1.1,1.9,1.4,3.1.3,1.2.4,2.3.3,3.3-.1,1.1-.6,1.7-1.4,2-.8.2-1.5-.2-2.2-1.1-.6-.8-1.1-1.9-1.4-3-.3-1.2-.4-2.3-.3-3.3.1-1.1.6-1.7,1.4-1.9ZM225.4,278c-.2,0-.3.2-.4.4,0,.2-.1.5,0,.8,0,.3,0,.6,0,.9,0,.3,0,.6.2.8,0,.2.1.5.2.8.1.3.2.6.4.9.1.3.3.5.5.7.2.2.3.3.5.2.2,0,.3-.2.4-.4,0-.2,0-.5,0-.8,0-.7-.1-1.2-.2-1.7-.1-.5-.3-1-.6-1.6-.1-.3-.3-.5-.5-.7-.2-.2-.3-.2-.5-.2Z"/>
    <path class="st1" d="M229.1,277.3l-.6-1.9,2.2-.7,2.7,8.6-1.4.5-2.1-6.7-.8.2Z"/>
    <path class="st1" d="M234.1,275.7l-.7-1.8,2.2-.8,3.2,8.4-1.4.5-2.5-6.5-.8.3Z"/>
    <path class="st1" d="M239.2,271.1c.8-.3,1.5,0,2.3.7.7.7,1.4,1.7,1.9,2.8.5,1.1.8,2.2.8,3.2,0,1.1-.3,1.8-1,2.2-.8.3-1.5,0-2.3-.7-.7-.7-1.4-1.6-1.9-2.8-.5-1.1-.8-2.2-.8-3.2,0-1.1.3-1.8,1-2.2ZM240.1,272.9c-.2,0-.3.2-.3.5,0,.2,0,.5,0,.8,0,.3.1.6.2.9,0,.3.2.5.3.8,0,.2.2.4.4.7.2.3.3.5.5.8.2.2.4.4.6.6.2.2.4.2.6.1.2,0,.3-.2.3-.5,0-.2,0-.5,0-.8-.2-.6-.3-1.2-.5-1.6-.2-.5-.5-1-.9-1.5-.2-.3-.4-.4-.6-.6-.2-.1-.4-.2-.6,0Z"/>
    <path class="st1" d="M243.6,271.6l-.9-1.8,2.1-1.1,4.1,8-1.3.7-3.2-6.2-.7.4Z"/>
    <path class="st1" d="M248.2,266.4c.7-.4,1.5-.3,2.4.4.8.7,1.6,1.5,2.2,2.5.6,1,1,2.1,1.2,3.1.2,1.1,0,1.8-.8,2.3-.7.4-1.5.3-2.4-.4-.8-.6-1.6-1.5-2.2-2.5-.6-1-1-2.1-1.2-3.1-.2-1,0-1.8.8-2.3ZM249.2,268.2c-.2.1-.2.3-.2.5,0,.2,0,.5.1.8,0,.3.2.6.3.9.1.3.2.5.4.7.1.2.3.4.4.6.2.3.4.5.6.7.2.2.4.4.6.5.2.1.4.1.6,0,.2-.1.2-.3.2-.5,0-.2,0-.5-.1-.8-.2-.6-.5-1.1-.7-1.6-.3-.4-.6-.9-1-1.4-.2-.2-.4-.4-.6-.5-.2-.1-.4-.1-.6,0Z"/>
    <path class="st1" d="M252.6,266.4l-1.1-1.6,1.9-1.3,5,7.4-1.3.8-3.9-5.8-.7.5Z"/>
    <path class="st1" d="M256.6,260.7c.7-.5,1.5-.4,2.4.1.9.5,1.7,1.3,2.5,2.3.7,1,1.3,1.9,1.6,2.9.3,1,.1,1.8-.5,2.4-.7.5-1.5.4-2.4-.1-.9-.5-1.7-1.3-2.5-2.3-.7-1-1.3-2-1.6-3-.3-1-.1-1.8.5-2.3ZM257.8,262.3c-.1.1-.2.3-.2.5,0,.2.1.5.2.8.1.3.3.5.4.8.2.3.3.5.5.7.1.2.3.4.5.6.2.2.4.5.7.7.2.2.5.3.7.4.2.1.4,0,.6,0,.2-.1.2-.3.2-.6,0-.2-.1-.5-.2-.8-.3-.6-.6-1.1-.9-1.5-.3-.4-.7-.8-1.2-1.2-.2-.2-.5-.3-.7-.4-.2,0-.4,0-.6,0Z"/>
    <path class="st1" d="M261,260.2l-1.3-1.5,1.8-1.5,5.9,6.8-1.1,1-4.6-5.3-.6.5Z"/>
    <path class="st1" d="M264.2,254.1c.6-.6,1.4-.6,2.4-.2,1,.4,1.9,1.1,2.7,2,.9.9,1.5,1.8,1.9,2.7.4,1,.4,1.8-.2,2.4-.6.6-1.4.6-2.4.2-1-.4-1.9-1.1-2.7-2-.9-.9-1.5-1.8-1.9-2.8-.4-1-.3-1.8.2-2.4ZM265.7,255.6c-.1.1-.2.3-.1.5,0,.2.2.5.3.7.2.3.3.5.5.8.2.2.4.4.5.6.2.2.3.3.6.5.2.2.5.4.8.6.3.2.5.3.7.3.2,0,.4,0,.6,0,.1-.1.2-.3.1-.6,0-.2-.2-.5-.3-.7-.4-.6-.7-1-1.1-1.4-.3-.4-.8-.7-1.3-1.1-.3-.2-.5-.3-.7-.3-.2,0-.4,0-.6.1Z"/>
    <path class="st1" d="M268.5,253.1l-1.5-1.3,1.6-1.7,6.6,6-1,1.1-5.2-4.7-.5.6Z"/>
    <path class="st1" d="M271.1,246.6c.6-.6,1.3-.8,2.3-.5,1,.3,2,.9,2.9,1.6,1,.8,1.7,1.6,2.2,2.5.5.9.6,1.7,0,2.4-.5.6-1.3.8-2.4.4-1-.3-2-.9-2.9-1.6-1-.8-1.7-1.6-2.2-2.5-.5-.9-.5-1.7,0-2.4ZM272.7,247.9c-.1.1-.1.3,0,.6,0,.2.2.4.4.7.2.2.4.5.6.7.2.2.4.4.6.5.2.1.4.3.6.5.3.2.5.3.8.5.3.1.5.2.8.2.2,0,.4,0,.5-.1.1-.2.1-.3,0-.6,0-.2-.2-.4-.4-.7-.4-.5-.8-.9-1.2-1.2-.4-.3-.9-.6-1.4-.9-.3-.1-.5-.2-.8-.3-.2,0-.4,0-.5.2Z"/>
    <path class="st1" d="M275.2,245.1l-1.6-1.2,1.4-1.9,7.3,5.2-.9,1.2-5.7-4.1-.5.7Z"/>
    <path class="st1" d="M278.2,240.8l-1.7-1.1,1.2-2,7.6,4.8-.8,1.3-5.9-3.7-.4.7Z"/>
    <path class="st1" d="M280.9,236.4l-1.7-1,1.1-2,7.9,4.3-.7,1.3-6.1-3.4-.4.7Z"/>
    <path class="st1" d="M281.8,229.6c.4-.7,1.1-1.1,2.2-1,1.1,0,2.1.4,3.2.9,1.1.5,2,1.2,2.7,1.9.7.8.9,1.6.6,2.3-.4.7-1.1,1.1-2.2,1-1,0-2.1-.4-3.2-.9-1.1-.5-2-1.2-2.7-1.9-.7-.8-.9-1.5-.6-2.3ZM283.7,230.5c0,.2,0,.4,0,.5.1.2.3.4.6.6.2.2.5.4.8.5.3.2.5.3.7.4.2,0,.4.2.7.3.3.1.6.2.9.3.3,0,.6,0,.8,0,.3,0,.4-.1.5-.3,0-.2,0-.4,0-.6-.1-.2-.3-.4-.6-.6-.5-.4-1-.7-1.5-.9-.4-.2-1-.4-1.6-.6-.3,0-.6,0-.8,0-.2,0-.4.1-.5.3Z"/>
    <path class="st1" d="M285.5,227.2l-1.8-.8.9-2.1,8.3,3.4-.6,1.4-6.5-2.7-.3.7Z"/>
    <path class="st1" d="M285.7,220.3c.3-.8,1-1.2,2.1-1.2,1.1,0,2.2.1,3.3.5,1.2.4,2.1.9,2.9,1.6.8.7,1.1,1.4.9,2.2-.3.8-1,1.2-2.1,1.2-1,0-2.1-.1-3.3-.5-1.2-.4-2.1-.9-2.9-1.6-.8-.7-1.1-1.4-.9-2.2ZM287.6,220.9c0,.2,0,.4.1.5.1.2.4.3.6.5.3.2.5.3.8.4.3.1.5.2.7.3.2,0,.5.1.8.2.3,0,.6.1.9.2.3,0,.6,0,.8,0,.2,0,.4-.2.5-.3,0-.2,0-.4-.2-.6-.1-.2-.4-.3-.6-.5-.6-.3-1.1-.6-1.6-.7-.5-.2-1-.3-1.7-.4-.3,0-.6,0-.8,0-.2,0-.4.2-.4.4Z"/>
    <path class="st1" d="M289.1,217.4l-1.9-.5.6-2.2,8.6,2.4-.4,1.5-6.7-1.9-.2.8Z"/>
    <path class="st1" d="M288.4,210.5c.2-.8.8-1.3,1.9-1.5,1-.2,2.2-.1,3.4.1,1.2.3,2.2.7,3.1,1.3.9.6,1.3,1.3,1.1,2.1-.2.8-.8,1.3-1.9,1.5-1,.2-2.1.1-3.3-.1-1.2-.3-2.2-.7-3.1-1.3-.9-.6-1.3-1.3-1.1-2.1ZM290.4,211c0,.2,0,.4.2.5.2.2.4.3.7.4.3.1.6.2.9.3.3,0,.5.2.8.2.2,0,.5,0,.8.1.3,0,.6,0,.9,0,.3,0,.6,0,.8-.1.2,0,.4-.2.4-.4,0-.2,0-.4-.2-.5-.2-.2-.4-.3-.7-.4-.6-.3-1.2-.4-1.6-.5-.5-.1-1.1-.2-1.7-.2-.3,0-.6,0-.8.1-.2,0-.4.2-.4.4Z"/>
    <path class="st1" d="M291.4,207.3l-2-.3.4-2.3,8.9,1.4-.2,1.5-6.9-1.1v.8Z"/>
    <path class="st1" d="M290,200.6c.1-.8.7-1.4,1.7-1.7,1-.3,2.1-.4,3.3-.2,1.2.1,2.3.4,3.2.9,1,.5,1.4,1.1,1.4,2-.1.8-.7,1.4-1.7,1.7-1,.3-2.1.4-3.3.2-1.2-.1-2.3-.4-3.2-.9-1-.5-1.4-1.1-1.4-2ZM292.1,200.8c0,.2,0,.3.3.5.2.1.4.3.7.4.3,0,.6.2.9.2.3,0,.6.1.8.1.2,0,.5,0,.8,0,.3,0,.6,0,.9,0,.3,0,.6-.1.8-.2.2,0,.4-.2.4-.4,0-.2,0-.4-.3-.5-.2-.1-.4-.3-.7-.4-.6-.2-1.2-.3-1.7-.3-.5,0-1.1,0-1.7,0-.3,0-.6.1-.8.2-.2.1-.3.3-.4.4Z"/>
    <path class="st1" d="M290.4,195.5c0-.8.6-1.4,1.6-1.8,1-.3,2.1-.5,3.3-.4,1.2,0,2.3.3,3.3.7,1,.4,1.5,1.1,1.5,1.9,0,.8-.6,1.4-1.6,1.8-1,.3-2.1.5-3.3.4-1.2,0-2.3-.3-3.3-.7-1-.4-1.5-1-1.5-1.9ZM292.4,195.6c0,.2,0,.3.3.5.2.1.4.2.7.3.3,0,.6.1.9.2.3,0,.6,0,.8,0,.2,0,.5,0,.8,0,.3,0,.6,0,.9-.1.3,0,.6-.1.8-.3.2-.1.3-.3.3-.4,0-.2,0-.4-.3-.5-.2-.1-.4-.2-.7-.3-.6-.2-1.2-.2-1.7-.2-.5,0-1.1,0-1.7.1-.3,0-.6.1-.8.2-.2.1-.3.3-.3.5Z"/>
    <path class="st1" d="M290.4,190.5c0-.8.5-1.5,1.5-1.9,1-.4,2.1-.6,3.3-.6,1.2,0,2.3.1,3.3.5,1,.4,1.5,1,1.6,1.8,0,.8-.5,1.5-1.5,1.9-1,.4-2.1.6-3.3.6-1.2,0-2.3-.1-3.3-.5-1-.4-1.5-1-1.6-1.8ZM292.5,190.4c0,.2.1.3.3.5.2.1.5.2.8.3.3,0,.6.1.9.1.3,0,.6,0,.8,0,.2,0,.5,0,.8,0,.3,0,.6,0,.9-.2.3,0,.5-.2.7-.3.2-.1.3-.3.3-.5,0-.2-.1-.4-.3-.5-.2-.1-.5-.2-.8-.3-.7-.1-1.2-.2-1.7-.1-.5,0-1.1,0-1.7.2-.3,0-.5.2-.7.3-.2.1-.3.3-.3.5Z"/>
    <path class="st1" d="M290.2,185.4c0-.8.4-1.5,1.4-1.9,1-.5,2-.7,3.2-.8,1.2-.1,2.3,0,3.3.3,1,.3,1.6.9,1.7,1.7,0,.8-.4,1.5-1.4,1.9-.9.5-2,.7-3.2.8-1.2.1-2.3,0-3.3-.3-1-.3-1.6-.9-1.7-1.7ZM292.2,185.2c0,.2.1.3.3.4.2.1.5.2.8.2.3,0,.6,0,.9,0,.3,0,.6,0,.8,0,.2,0,.5,0,.8-.1.3,0,.6-.1.9-.2.3,0,.5-.2.7-.3.2-.1.3-.3.3-.5,0-.2-.1-.3-.4-.5-.2-.1-.5-.2-.8-.2-.7,0-1.2,0-1.7,0-.5,0-1.1.1-1.7.3-.3,0-.5.2-.7.3-.2.1-.3.3-.3.5Z"/>
    <path class="st1" d="M289.6,180.4c0-.8.3-1.5,1.3-2,.9-.5,2-.9,3.2-1,1.2-.2,2.3-.1,3.3.1,1.1.2,1.6.8,1.8,1.6,0,.8-.3,1.5-1.3,2-.9.5-2,.9-3.2,1-1.2.2-2.3.1-3.4-.1-1-.2-1.6-.8-1.8-1.6ZM291.6,180.1c0,.2.2.3.4.4.2,0,.5.2.8.2.3,0,.6,0,.9,0,.3,0,.6,0,.8,0,.2,0,.5,0,.8-.2.3,0,.6-.2.9-.3.3-.1.5-.2.7-.4.2-.2.3-.3.3-.5,0-.2-.2-.3-.4-.4-.2,0-.5-.2-.8-.2-.7,0-1.2,0-1.7,0-.5,0-1.1.2-1.7.4-.3.1-.5.2-.7.4-.2.2-.3.3-.2.5Z"/>
    <path class="st1" d="M291.3,176.3l-1.9.4-.5-2.3,8.8-1.7.3,1.5-6.9,1.4.2.8Z"/>
    <path class="st1" d="M287.7,170.4c-.2-.8.2-1.5,1-2.2.9-.6,1.9-1.1,3.1-1.4,1.2-.3,2.3-.4,3.3-.3,1.1.1,1.7.6,2,1.4.2.8-.2,1.5-1,2.2-.8.6-1.9,1.1-3,1.4-1.2.3-2.3.4-3.3.3-1.1-.1-1.7-.6-2-1.4ZM289.6,169.9c0,.2.2.3.4.4.2,0,.5,0,.8,0,.3,0,.6,0,.9,0,.3,0,.6,0,.8-.2.2,0,.5-.1.7-.2.3-.1.6-.2.9-.4.3-.1.5-.3.7-.5.2-.2.3-.3.2-.5,0-.2-.2-.3-.4-.4-.2,0-.5,0-.8,0-.7,0-1.2.1-1.7.3-.5.1-1,.3-1.6.6-.3.1-.5.3-.7.5-.2.2-.2.4-.2.5Z"/>
    <path class="st1" d="M288.9,166.2l-1.9.6-.7-2.2,8.5-2.8.5,1.4-6.7,2.2.2.8Z"/>
    <path class="st1" d="M287.2,161.3l-1.8.7-.8-2.2,8.4-3.2.5,1.4-6.5,2.5.3.8Z"/>
    <path class="st1" d="M285.3,156.4l-1.8.8-1-2.1,8.2-3.7.6,1.4-6.4,2.9.3.7Z"/>
    <path class="st1" d="M280.4,151.6c-.4-.8-.2-1.5.5-2.3.7-.8,1.6-1.5,2.7-2,1.1-.6,2.1-.9,3.2-1,1.1-.1,1.8.2,2.2.9.4.8.2,1.5-.5,2.3-.7.8-1.6,1.5-2.6,2-1.1.6-2.1.9-3.2,1-1.1.1-1.8-.2-2.2-.9ZM282.2,150.6c0,.2.3.2.5.3.2,0,.5,0,.8,0,.3,0,.6-.2.9-.3.3-.1.5-.2.7-.3.2-.1.4-.2.7-.4.3-.2.5-.4.8-.6.2-.2.4-.4.5-.6.1-.2.2-.4,0-.6,0-.2-.3-.3-.5-.3-.2,0-.5,0-.8.1-.6.2-1.2.4-1.6.6-.4.2-.9.5-1.4,1-.2.2-.4.4-.5.6-.1.2-.1.4,0,.6Z"/>
    <path class="st1" d="M280.6,147.2l-1.7,1-1.2-2,7.7-4.7.8,1.3-6,3.6.4.7Z"/>
    <path class="st1" d="M277.8,142.8l-1.6,1.1-1.3-1.9,7.4-5.1.9,1.2-5.8,4,.5.7Z"/>
    <path class="st1" d="M274.8,138.5l-1.6,1.2-1.4-1.8,7.1-5.5.9,1.2-5.5,4.3.5.6Z"/>
    <path class="st1" d="M271.6,134.5l-1.5,1.3-1.5-1.7,6.7-5.9,1,1.1-5.3,4.6.5.6Z"/>
    <path class="st1" d="M265.5,131.3c-.6-.6-.6-1.4-.2-2.4.4-1,1.1-1.9,2-2.7.9-.9,1.8-1.5,2.7-1.9,1-.4,1.8-.4,2.4.2.6.6.6,1.4.2,2.4-.4,1-1.1,1.9-1.9,2.7-.9.9-1.8,1.5-2.8,1.9-1,.4-1.8.4-2.4-.2ZM266.9,129.8c.1.1.3.2.5.1.2,0,.5-.2.7-.3.3-.2.5-.3.7-.5.2-.2.4-.4.6-.5.2-.2.3-.4.5-.6.2-.2.4-.5.6-.8.2-.3.3-.5.3-.7,0-.2,0-.4,0-.6-.1-.1-.3-.2-.6-.1-.2,0-.5.2-.7.3-.6.4-1,.7-1.3,1.1-.4.3-.7.8-1.1,1.3-.2.3-.3.5-.3.7,0,.2,0,.4.1.6Z"/>
    <path class="st1" d="M261.8,127.8c-.6-.6-.7-1.4-.3-2.4.4-1,1-1.9,1.8-2.8.8-.9,1.7-1.6,2.6-2.1,1-.5,1.8-.5,2.4,0,.6.6.7,1.4.3,2.4-.4,1-1,1.9-1.8,2.8-.8.9-1.7,1.6-2.6,2.1-.9.5-1.7.5-2.4,0ZM263.2,126.2c.1.1.3.1.5,0,.2,0,.5-.2.7-.4.2-.2.5-.4.7-.6.2-.2.4-.4.6-.6.1-.2.3-.4.5-.6.2-.3.4-.5.5-.8.1-.3.2-.5.3-.8,0-.2,0-.4-.1-.6-.1-.1-.3-.2-.6,0-.2,0-.5.2-.7.4-.5.4-1,.8-1.3,1.2-.3.4-.7.8-1,1.4-.2.3-.3.5-.3.7,0,.2,0,.4.2.6Z"/>
    <path class="st1" d="M260.5,123.5l-1.2,1.5-1.8-1.4,5.6-7,1.2.9-4.4,5.5.6.5Z"/>
    <path class="st1" d="M253.9,121.5c-.7-.5-.9-1.3-.6-2.3.3-1,.7-2,1.4-3,.7-1,1.5-1.8,2.4-2.4.9-.6,1.7-.7,2.4-.2.7.5.9,1.3.6,2.3-.2,1-.7,2-1.4,3-.7,1-1.5,1.8-2.4,2.4-.9.6-1.7.7-2.4.2ZM255.1,119.8c.2,0,.3.1.6,0,.2,0,.4-.2.7-.4.2-.2.4-.4.6-.7.2-.2.4-.4.5-.6.1-.2.3-.4.4-.7.2-.3.3-.6.4-.8.1-.3.2-.5.2-.8,0-.3,0-.4-.2-.5-.2-.1-.4-.1-.6,0-.2,0-.4.2-.7.5-.5.5-.9.9-1.1,1.3-.3.4-.6.9-.8,1.5-.1.3-.2.5-.2.8,0,.2,0,.4.2.5Z"/>
    <path class="st1" d="M252.1,117.4l-1,1.7-2-1.2,4.7-7.6,1.3.8-3.7,5.9.7.4Z"/>
    <path class="st1" d="M245.3,116.1c-.7-.4-1-1.2-.9-2.2.1-1,.5-2.1,1.1-3.2.6-1.1,1.3-1.9,2.1-2.6.8-.7,1.6-.9,2.4-.5.7.4,1,1.2.9,2.2-.1,1-.5,2.1-1.1,3.2-.6,1.1-1.3,2-2.1,2.6-.8.7-1.6.8-2.3.5ZM246.3,114.3c.2,0,.3,0,.6,0,.2-.1.4-.3.6-.5.2-.2.4-.5.6-.7.2-.2.3-.5.4-.7.1-.2.2-.4.3-.7.1-.3.2-.6.3-.9,0-.3.1-.6.1-.8,0-.3,0-.4-.2-.5s-.4,0-.6,0c-.2.1-.4.3-.6.5-.4.5-.7,1-1,1.4-.2.4-.5,1-.7,1.6,0,.3-.1.6-.1.8,0,.2.1.4.3.5Z"/>
    <path class="st1" d="M243.1,112.3l-.8,1.8-2.1-1,3.8-8.1,1.4.6-3,6.3.7.3Z"/>
    <path class="st1" d="M236.2,111.8c-.8-.3-1.1-1-1.1-2.1,0-1.1.2-2.1.7-3.3.5-1.1,1-2.1,1.7-2.8.7-.8,1.5-1,2.3-.8.8.3,1.1,1,1.1,2.1,0,1-.2,2.1-.7,3.3-.5,1.1-1,2.1-1.8,2.9-.7.8-1.5,1-2.3.7ZM236.9,109.9c.2,0,.4,0,.5-.1.2-.1.4-.3.5-.6.2-.2.3-.5.5-.8.1-.3.3-.5.3-.7,0-.2.2-.5.2-.7,0-.3.2-.6.2-.9,0-.3,0-.6,0-.8,0-.2-.1-.4-.3-.5-.2,0-.4,0-.6.1-.2.1-.4.3-.5.6-.4.6-.6,1.1-.8,1.5-.2.5-.3,1-.5,1.7,0,.3,0,.6,0,.8,0,.2.2.4.3.5Z"/>
    <path class="st1" d="M231.4,110c-.8-.3-1.2-1-1.2-2,0-1.1.1-2.2.5-3.3.4-1.2.9-2.1,1.6-2.9.7-.8,1.4-1.1,2.2-.9.8.3,1.2,1,1.2,2.1,0,1-.1,2.1-.5,3.3-.4,1.2-.9,2.1-1.6,3-.7.8-1.4,1.1-2.2.9ZM232.1,108.1c.2,0,.4,0,.5-.1.2-.1.3-.4.5-.6.2-.3.3-.5.4-.8.1-.3.2-.5.3-.8,0-.2.1-.5.2-.8,0-.3.1-.6.2-.9,0-.3,0-.6,0-.8,0-.2-.2-.4-.3-.5-.2,0-.4,0-.6.2-.2.1-.3.4-.5.6-.3.6-.6,1.1-.7,1.6-.2.5-.3,1-.4,1.7,0,.3,0,.6,0,.8,0,.2.2.4.4.4Z"/>
    <path class="st1" d="M228.5,106.7l-.5,1.9-2.2-.6,2.4-8.7,1.5.4-1.8,6.8.8.2Z"/>
    <path class="st1" d="M221.7,107.4c-.8-.2-1.3-.8-1.5-1.9-.2-1-.1-2.2.1-3.4.2-1.2.7-2.2,1.2-3.1.6-.9,1.3-1.3,2.1-1.1.8.2,1.3.8,1.5,1.9.2,1,.1,2.1-.1,3.3-.2,1.2-.7,2.2-1.2,3.1-.6.9-1.3,1.3-2.1,1.1ZM222.1,105.3c.2,0,.4,0,.5-.2.2-.2.3-.4.4-.7.1-.3.2-.6.3-.9,0-.3.2-.5.2-.8,0-.2,0-.5.1-.8,0-.3,0-.6,0-.9,0-.3,0-.6-.1-.8,0-.2-.2-.4-.4-.4-.2,0-.4,0-.5.2-.2.2-.3.4-.4.7-.3.6-.4,1.2-.5,1.6-.1.5-.2,1.1-.2,1.7,0,.3,0,.6.1.8s.2.4.4.4Z"/>
    <path class="st1" d="M218.4,104.4l-.3,2-2.3-.3,1.3-8.9,1.5.2-1,6.9h.8Z"/>
    <path class="st1" d="M211.7,105.8c-.8-.1-1.4-.7-1.7-1.7-.3-1-.4-2.1-.3-3.3.1-1.2.4-2.3.9-3.2.5-1,1.1-1.4,2-1.4.8.1,1.4.7,1.7,1.7.3,1,.4,2.1.3,3.3-.1,1.2-.4,2.3-.9,3.2-.5,1-1.1,1.4-2,1.4ZM211.9,103.8c.2,0,.3,0,.5-.3.1-.2.3-.4.4-.7,0-.3.2-.6.2-.9,0-.3,0-.6.1-.8,0-.2,0-.5,0-.8,0-.3,0-.6,0-.9,0-.3-.1-.6-.2-.8-.1-.2-.2-.4-.4-.4-.2,0-.4,0-.5.3-.1.2-.3.4-.3.7-.2.6-.3,1.2-.3,1.7,0,.5,0,1.1,0,1.7,0,.3.1.6.2.8.1.2.3.3.5.3Z"/>
    <path class="st1" d="M206.6,105.5c-.8,0-1.4-.6-1.8-1.6-.3-1-.5-2.1-.5-3.3,0-1.2.3-2.3.7-3.3.4-1,1-1.5,1.9-1.5.8,0,1.4.6,1.8,1.6.4,1,.5,2.1.5,3.3,0,1.2-.3,2.3-.7,3.3-.4,1-1,1.5-1.9,1.5ZM206.7,103.5c.2,0,.3-.1.5-.3.1-.2.2-.4.3-.7,0-.3.1-.6.2-.9,0-.3,0-.6,0-.8,0-.2,0-.5,0-.8,0-.3,0-.6-.1-.9,0-.3-.2-.6-.3-.8-.1-.2-.3-.3-.4-.3-.2,0-.4,0-.5.3-.1.2-.2.4-.3.7-.1.6-.2,1.2-.2,1.7,0,.5,0,1.1.1,1.7,0,.3.1.6.3.8.1.2.3.3.5.3Z"/>
    <path class="st1" d="M202.9,103.2v2c0,0-2.3,0-2.3,0l-.3-9h1.5s.2,7,.2,7h.8Z"/>
    <path class="st1" d="M196.5,105.8c-.8,0-1.5-.4-2-1.4-.5-.9-.7-2-.9-3.2-.1-1.2,0-2.3.3-3.3.3-1,.9-1.6,1.7-1.7.8,0,1.5.4,2,1.4.5.9.8,2,.9,3.2.1,1.2,0,2.3-.3,3.3-.3,1-.9,1.6-1.7,1.7ZM196.3,103.8c.2,0,.3-.1.4-.3.1-.2.2-.5.2-.8,0-.3,0-.6,0-.9,0-.3,0-.6,0-.8,0-.2,0-.5-.1-.8,0-.3-.1-.6-.2-.9,0-.3-.2-.5-.4-.7-.1-.2-.3-.3-.5-.3-.2,0-.3.1-.5.4-.1.2-.2.5-.2.8,0,.7,0,1.2,0,1.7,0,.5.1,1.1.3,1.7,0,.3.2.5.3.7.1.2.3.3.5.3Z"/>
    <path class="st1" d="M192.5,103.9l.3,2-2.3.3-1.3-8.9,1.5-.2,1,6.9h.8Z"/>
    <path class="st1" d="M187.4,104.7l.4,1.9-2.3.5-1.8-8.8,1.5-.3,1.4,6.9.8-.2Z"/>
    <path class="st1" d="M181.6,108.4c-.8.2-1.5-.2-2.2-1-.6-.9-1.1-1.9-1.4-3-.3-1.2-.4-2.3-.3-3.3.1-1.1.6-1.7,1.4-2,.8-.2,1.5.2,2.2,1,.6.8,1.1,1.8,1.4,3,.3,1.2.4,2.3.3,3.3-.1,1.1-.6,1.7-1.4,2ZM181,106.4c.2,0,.3-.2.4-.4,0-.2,0-.5,0-.8,0-.3,0-.6,0-.9,0-.3-.1-.6-.2-.8,0-.2-.1-.5-.2-.7-.1-.3-.2-.6-.4-.9-.1-.3-.3-.5-.5-.6-.2-.2-.4-.2-.5-.2-.2,0-.3.2-.4.4,0,.2,0,.5,0,.8,0,.7.1,1.2.3,1.7.1.5.3,1,.6,1.6.1.3.3.5.5.7.2.2.4.2.5.2Z"/>
    <path class="st1" d="M176.7,109.9c-.8.2-1.5,0-2.2-.9-.7-.8-1.2-1.8-1.6-3-.4-1.2-.6-2.3-.5-3.3,0-1.1.5-1.8,1.3-2.1.8-.2,1.5,0,2.2.9.7.8,1.2,1.8,1.6,2.9.4,1.2.6,2.3.5,3.3,0,1.1-.5,1.7-1.2,2ZM176.1,107.9c.2,0,.3-.2.3-.4,0-.2,0-.5,0-.8,0-.3,0-.6-.2-.9,0-.3-.1-.6-.2-.8,0-.2-.2-.5-.3-.7-.1-.3-.3-.6-.4-.8-.2-.3-.3-.5-.5-.6-.2-.2-.4-.2-.5-.2-.2,0-.3.2-.4.5,0,.2,0,.5,0,.8,0,.7.2,1.2.4,1.7.2.5.4,1,.7,1.6.2.3.3.5.5.6.2.1.4.2.6.1Z"/>
    <path class="st1" d="M172.4,108.9l.7,1.8-2.2.9-3.3-8.3,1.4-.6,2.6,6.5.8-.3Z"/>
    <path class="st1" d="M167.3,113.6c-.8.3-1.5.1-2.3-.6-.8-.7-1.4-1.7-1.9-2.8-.5-1.1-.8-2.2-.9-3.2,0-1.1.3-1.8,1-2.2.8-.3,1.5-.1,2.3.6.8.7,1.4,1.6,1.9,2.7.5,1.1.8,2.2.9,3.2,0,1.1-.3,1.8-1,2.2ZM166.4,111.7c.2,0,.3-.2.3-.5,0-.2,0-.5,0-.8,0-.3-.1-.6-.3-.9,0-.3-.2-.5-.3-.8,0-.2-.2-.4-.4-.7-.2-.3-.3-.5-.5-.8-.2-.2-.4-.4-.6-.6-.2-.1-.4-.2-.6-.1-.2,0-.3.2-.3.5,0,.2,0,.5,0,.8.2.6.3,1.2.6,1.6.2.5.5.9.9,1.5.2.2.4.4.6.6.2.1.4.2.6,0Z"/>
    <path class="st1" d="M162.8,115.9c-.8.4-1.5.2-2.3-.5-.8-.7-1.5-1.6-2.1-2.6-.6-1.1-.9-2.1-1.1-3.2-.1-1.1.2-1.8.9-2.2.7-.4,1.5-.2,2.3.5.8.7,1.5,1.5,2.1,2.6.6,1.1.9,2.1,1.1,3.2.1,1.1-.2,1.8-.9,2.2ZM161.8,114.1c.2,0,.2-.3.3-.5,0-.2,0-.5-.1-.8,0-.3-.2-.6-.3-.9-.1-.3-.2-.5-.3-.7-.1-.2-.2-.4-.4-.7-.2-.3-.4-.5-.6-.8-.2-.2-.4-.4-.6-.5-.2-.1-.4-.2-.6,0-.2,0-.3.3-.3.5,0,.2,0,.5.1.8.2.6.4,1.2.7,1.6.2.4.6.9,1,1.4.2.2.4.4.6.5.2.1.4.1.6,0Z"/>
    <path class="st1" d="M158.4,115.7l1,1.7-2,1.2-4.7-7.6,1.3-.8,3.7,6,.7-.4Z"/>
    <path class="st1" d="M154.2,121.2c-.7.4-1.5.4-2.4-.2-.9-.6-1.7-1.4-2.4-2.4-.7-1-1.2-2-1.4-3-.3-1,0-1.8.6-2.3.7-.5,1.5-.4,2.4.2.9.6,1.7,1.4,2.4,2.4.7,1,1.2,2,1.4,3,.3,1,0,1.8-.6,2.3ZM153,119.5c.1-.1.2-.3.2-.5,0-.2,0-.5-.2-.8-.1-.3-.2-.6-.4-.8-.1-.3-.3-.5-.4-.7-.1-.2-.3-.4-.5-.6-.2-.2-.4-.5-.7-.7-.2-.2-.5-.4-.7-.4-.2-.1-.4-.1-.6,0-.2.1-.2.3-.2.5,0,.2,0,.5.2.8.3.6.6,1.1.8,1.5.3.4.7.8,1.1,1.3.2.2.4.4.7.5.2,0,.4,0,.6,0Z"/>
    <path class="st1" d="M149.8,121.5l1.2,1.5-1.8,1.4-5.6-7,1.2-.9,4.3,5.5.6-.5Z"/>
    <path class="st1" d="M146.3,127.4c-.6.5-1.4.6-2.4,0-.9-.5-1.8-1.2-2.6-2.1-.8-.9-1.4-1.8-1.8-2.8-.4-1-.3-1.8.3-2.4.6-.5,1.4-.5,2.4,0,.9.5,1.8,1.2,2.6,2.1.8.9,1.4,1.9,1.8,2.8.4,1,.3,1.8-.3,2.4ZM144.9,125.9c.1-.1.2-.3.1-.5,0-.2-.1-.5-.3-.8-.1-.3-.3-.5-.5-.8-.2-.2-.3-.5-.5-.6-.1-.2-.3-.3-.6-.6-.2-.2-.5-.4-.7-.6-.3-.2-.5-.3-.7-.4-.2,0-.4,0-.6,0-.1.1-.2.3-.1.6,0,.2.1.5.3.7.3.6.7,1,1,1.4.3.4.8.8,1.3,1.2.2.2.5.3.7.4.2,0,.4,0,.6,0Z"/>
    <path class="st1" d="M142.6,130.9c-.6.6-1.4.6-2.4.2-1-.4-1.9-1.1-2.7-1.9-.9-.9-1.5-1.8-1.9-2.7-.4-1-.4-1.8.2-2.4.6-.6,1.4-.6,2.4-.2,1,.4,1.9,1,2.7,1.9.9.9,1.5,1.8,1.9,2.7.4,1,.4,1.8-.2,2.4ZM141.1,129.5c.1-.1.2-.3.1-.5,0-.2-.2-.5-.3-.7-.2-.3-.3-.5-.5-.7-.2-.2-.4-.4-.5-.6-.2-.2-.4-.3-.6-.5-.2-.2-.5-.4-.8-.6-.3-.2-.5-.3-.7-.3-.2,0-.4,0-.6,0-.1.1-.2.3-.1.6,0,.2.2.5.3.7.4.5.7,1,1.1,1.3.4.4.8.7,1.3,1.1.3.2.5.3.7.3.2,0,.4,0,.6-.1Z"/>
    <path class="st1" d="M139.1,134.6c-.6.6-1.4.7-2.4.3-1-.4-1.9-1-2.9-1.8-.9-.8-1.6-1.7-2.1-2.6-.5-1-.5-1.8,0-2.4.6-.6,1.4-.7,2.4-.3,1,.4,1.9.9,2.8,1.7.9.8,1.6,1.7,2.1,2.6.5.9.5,1.7,0,2.4ZM137.5,133.2c.1-.1.1-.3,0-.5,0-.2-.2-.5-.4-.7-.2-.2-.4-.5-.6-.7-.2-.2-.4-.4-.6-.6-.2-.1-.4-.3-.6-.5-.3-.2-.5-.4-.8-.5-.3-.1-.5-.2-.8-.3-.2,0-.4,0-.6.1-.1.1-.2.3,0,.6,0,.2.2.5.4.7.4.5.8.9,1.2,1.3.4.3.8.7,1.4,1,.3.2.5.2.7.3.2,0,.4,0,.5-.2Z"/>
    <path class="st1" d="M135.9,138.5c-.5.6-1.3.8-2.3.5-1-.3-2-.8-3-1.6-1-.8-1.7-1.6-2.2-2.5-.6-.9-.6-1.7,0-2.4.5-.6,1.3-.8,2.4-.5,1,.3,2,.8,2.9,1.6,1,.8,1.7,1.6,2.2,2.5.5.9.6,1.7,0,2.4ZM134.2,137.2c.1-.1.1-.3,0-.6,0-.2-.2-.4-.4-.7-.2-.2-.4-.5-.6-.7-.2-.2-.4-.4-.6-.5-.2-.1-.4-.3-.6-.4-.3-.2-.5-.3-.8-.5-.3-.1-.5-.2-.8-.2-.2,0-.4,0-.5.2-.1.2-.1.3,0,.6,0,.2.2.4.4.7.4.5.8.9,1.2,1.2.4.3.9.6,1.5.9.3.1.5.2.8.2.2,0,.4,0,.5-.2Z"/>
    <path class="st1" d="M131.7,140.1l1.6,1.1-1.3,1.9-7.4-5.1.9-1.2,5.8,4,.5-.7Z"/>
    <path class="st1" d="M130.1,146.8c-.5.7-1.2.9-2.3.8-1-.2-2.1-.6-3.1-1.2-1-.6-1.9-1.4-2.5-2.2-.7-.9-.8-1.6-.4-2.4.5-.7,1.2-.9,2.3-.7,1,.2,2.1.6,3.1,1.2,1,.6,1.9,1.4,2.5,2.2.6.8.8,1.6.4,2.4ZM128.3,145.7c0-.2,0-.3,0-.6-.1-.2-.3-.4-.5-.6-.2-.2-.5-.4-.7-.6-.2-.2-.5-.3-.7-.5-.2-.1-.4-.2-.7-.4-.3-.1-.6-.3-.9-.4-.3,0-.6-.1-.8-.1-.3,0-.4,0-.5.2-.1.2,0,.4,0,.6.1.2.3.4.5.6.5.4.9.8,1.4,1,.4.3.9.5,1.6.7.3.1.6.2.8.2.2,0,.4,0,.5-.2Z"/>
    <path class="st1" d="M127.6,151.2c-.4.7-1.2,1-2.2.9-1-.1-2.1-.5-3.2-1.1-1.1-.6-2-1.3-2.6-2-.7-.8-.9-1.6-.5-2.4.4-.7,1.2-1,2.2-.9,1,.1,2.1.5,3.2,1,1.1.6,2,1.3,2.6,2.1.7.8.9,1.6.5,2.3ZM125.8,150.2c0-.2,0-.3,0-.6-.1-.2-.3-.4-.5-.6-.2-.2-.5-.4-.7-.6-.2-.2-.5-.3-.7-.4-.2-.1-.4-.2-.7-.3-.3-.1-.6-.2-.9-.3-.3,0-.6-.1-.8,0-.3,0-.4,0-.5.2,0,.2,0,.4,0,.6.1.2.3.4.5.6.5.4,1,.7,1.4,1,.4.2,1,.5,1.6.7.3,0,.6.1.8.1.2,0,.4-.1.5-.3Z"/>
    <path class="st1" d="M123.8,153.4l1.8.8-1,2.1-8.1-3.8.6-1.4,6.3,3,.3-.7Z"/>
    <path class="st1" d="M121.7,158.1l1.8.7-.9,2.2-8.3-3.3.6-1.4,6.5,2.6.3-.8Z"/>
    <path class="st1" d="M119.8,163l1.9.6-.7,2.2-8.5-2.8.5-1.4,6.7,2.2.3-.8Z"/>
    <path class="st1" d="M120.2,169.9c-.2.8-.9,1.3-2,1.4-1,.1-2.2,0-3.3-.3-1.2-.3-2.2-.8-3-1.4-.9-.6-1.2-1.4-1-2.2.2-.8.9-1.3,2-1.4,1-.1,2.1,0,3.3.3,1.2.3,2.2.8,3,1.4.9.6,1.2,1.3,1,2.2ZM118.2,169.4c0-.2,0-.4-.2-.5-.2-.2-.4-.3-.7-.5-.3-.1-.5-.3-.8-.4-.3-.1-.5-.2-.8-.3-.2,0-.5-.1-.8-.2-.3,0-.6,0-.9-.1-.3,0-.6,0-.8,0-.2,0-.4.2-.4.4,0,.2,0,.4.2.5.2.2.4.3.7.5.6.3,1.1.5,1.6.6.5.1,1,.2,1.7.3.3,0,.6,0,.8,0,.2,0,.4-.2.4-.4Z"/>
    <path class="st1" d="M117,173l1.9.4-.5,2.3-8.8-1.8.3-1.5,6.9,1.4.2-.8Z"/>
    <path class="st1" d="M118.1,179.8c-.2.8-.7,1.4-1.8,1.6-1,.2-2.1.3-3.4,0-1.2-.2-2.3-.5-3.2-1-.9-.5-1.4-1.2-1.3-2,.1-.8.7-1.4,1.8-1.6,1-.2,2.1-.3,3.3-.1,1.2.2,2.3.5,3.2,1,.9.5,1.3,1.2,1.3,2ZM116.1,179.5c0-.2,0-.3-.2-.5-.2-.1-.4-.3-.7-.4-.3-.1-.6-.2-.9-.3-.3,0-.6-.1-.8-.2-.2,0-.5,0-.8,0-.3,0-.6,0-.9,0-.3,0-.6,0-.8.2-.2,0-.4.2-.4.4,0,.2,0,.4.3.5.2.1.4.3.7.4.6.2,1.2.4,1.7.4.5,0,1.1,0,1.7,0,.3,0,.6,0,.8-.2.2,0,.3-.2.4-.4Z"/>
    <path class="st1" d="M115.4,183.3l2,.2-.2,2.3-8.9-.7v-1.5c.1,0,7.1.6,7.1.6v-.8Z"/>
    <path class="st1" d="M117.3,189.9c0,.8-.6,1.4-1.6,1.8-1,.4-2.1.5-3.3.5-1.2,0-2.3-.2-3.3-.6-1-.4-1.5-1-1.5-1.9,0-.8.6-1.4,1.6-1.8,1-.4,2.1-.5,3.3-.5,1.2,0,2.3.2,3.3.6,1,.4,1.5,1,1.5,1.9ZM115.2,189.9c0-.2-.1-.3-.3-.5-.2-.1-.4-.2-.7-.3-.3,0-.6-.1-.9-.2-.3,0-.6,0-.8,0-.2,0-.5,0-.8,0-.3,0-.6,0-.9.1-.3,0-.6.2-.8.3-.2.1-.3.3-.3.5,0,.2.1.4.3.5.2.1.4.2.7.3.6.1,1.2.2,1.7.2.5,0,1.1,0,1.7-.1.3,0,.6-.1.8-.3.2-.1.3-.3.3-.5Z"/>
    <path class="st1" d="M117.3,195c0,.8-.5,1.5-1.5,1.9-1,.4-2.1.6-3.3.7-1.2,0-2.3-.1-3.3-.4-1-.3-1.6-.9-1.6-1.8,0-.8.5-1.5,1.5-1.9,1-.4,2-.6,3.3-.7,1.2,0,2.3.1,3.3.5,1,.3,1.5.9,1.6,1.8ZM115.3,195c0-.2-.1-.3-.3-.4-.2-.1-.5-.2-.8-.3-.3,0-.6,0-.9-.1-.3,0-.6,0-.8,0-.2,0-.5,0-.8,0-.3,0-.6,0-.9.2-.3,0-.5.2-.7.3-.2.1-.3.3-.3.5,0,.2.1.4.3.5.2.1.5.2.8.3.7.1,1.2.1,1.7.1.5,0,1.1,0,1.7-.2.3,0,.5-.2.7-.3.2-.1.3-.3.3-.5Z"/>
    <path class="st1" d="M115.2,198.8l2-.2.2,2.3-8.9.8v-1.5c-.1,0,6.8-.7,6.8-.7v-.8Z"/>
    <path class="st1" d="M118.3,205c0,.8-.3,1.5-1.2,2-.9.5-2,.9-3.2,1.1-1.2.2-2.3.2-3.3,0-1.1-.2-1.7-.8-1.8-1.6,0-.8.3-1.5,1.3-2,.9-.5,2-.9,3.2-1.1,1.2-.2,2.3-.2,3.4,0,1,.2,1.6.8,1.8,1.6ZM116.2,205.3c0-.2-.2-.3-.4-.4-.2,0-.5-.1-.8-.2-.3,0-.6,0-.9,0-.3,0-.6,0-.8,0-.2,0-.5,0-.8.2-.3,0-.6.2-.9.3-.3.1-.5.3-.7.4-.2.2-.3.3-.3.5,0,.2.2.3.4.4.2,0,.5.1.8.2.7,0,1.2,0,1.7,0,.5,0,1.1-.2,1.7-.4.3-.1.5-.2.7-.4.2-.2.3-.3.2-.5Z"/>
  </g>
  <g>
    <path class="st0" d="M79.2,163l-.7,4.9-19.2,3.5,17.5,8.8-.7,4.9-26.9.7.7-4.8,17-.4-15.8-8,.6-4.4,17.4-3.2-16.2-5.3.7-4.9,25.6,8.3Z"/>
    <path class="st0" d="M70.1,205.7l.4,4.9-19.6,1.6-.4-4.9,2.1-.2c-1-.9-1.7-1.8-2.2-2.7-.5-.9-.8-2-.9-3.1-.2-2.5.6-4.8,2.4-6.8,1.8-2,4.2-3.1,7.1-3.4,3-.3,5.6.4,7.7,2.1,2.1,1.6,3.2,3.7,3.4,6.3,0,1.2,0,2.3-.4,3.4-.4,1.1-.9,2.1-1.8,3l2.2-.2ZM65.7,200.9c-.1-1.5-.8-2.7-1.9-3.6-1.2-.9-2.6-1.3-4.3-1.2-1.7.1-3,.8-4,1.9-1,1.1-1.4,2.4-1.3,3.9.1,1.5.8,2.8,1.9,3.7,1.2.9,2.6,1.3,4.3,1.2,1.7-.1,3-.8,4-1.9s1.4-2.4,1.3-4Z"/>
    <path class="st0" d="M71.1,227.3l-3.6-2.3c.9-1.5,1.3-2.7,1.1-3.7-.1-.5-.3-.9-.6-1.2-.3-.3-.6-.3-1-.3-.3,0-.5.2-.7.4-.2.2-.4.8-.6,1.6l-.5,2c-.5,2.1-1.2,3.5-2,4.4-.8.9-1.8,1.5-3.1,1.8-1.7.4-3.3,0-4.7-1-1.4-1-2.3-2.6-2.8-4.7-.6-2.8,0-5.3,1.8-7.4l3.9,2.3c-.5.7-.9,1.5-1.2,2.3-.2.8-.3,1.6-.2,2.2.1.6.4,1.1.8,1.4.4.3.8.4,1.2.4.7-.2,1.3-1,1.7-2.6l.5-1.8c.9-3.4,2.5-5.4,4.9-5.9,1.5-.3,2.9,0,4.3.9,1.3.9,2.2,2.3,2.6,4.1.3,1.2.2,2.5,0,3.7-.3,1.2-.9,2.3-1.8,3.3Z"/>
    <path class="st0" d="M82.1,228.9l1.5,4.7-6.9,2.2.9,2.8-4,1.3-.9-2.8-14.7,4.7-1.5-4.7,14.7-4.7-.8-2.4,4-1.3.8,2.4,6.9-2.2Z"/>
    <path class="st0" d="M76.4,263.3l-6.7-14.3c-1.2.8-1.9,1.8-2.2,3.1s-.2,2.6.5,4c.8,1.7,2,2.8,3.8,3.5v4.6c-1.8-.3-3.3-1-4.5-2s-2.3-2.4-3.1-4.2c-1.3-2.8-1.5-5.5-.6-8.1.9-2.6,2.7-4.5,5.4-5.7,2.7-1.3,5.4-1.5,8-.5,2.6.9,4.5,2.7,5.8,5.3,1.3,2.8,1.5,5.5.5,8.1s-2.9,4.6-5.9,6l-.9.4ZM77.8,257.2c.9-.8,1.4-1.7,1.6-2.9.2-1.2,0-2.3-.5-3.5-.6-1.2-1.4-2.2-2.6-2.8-.7-.4-1.7-.6-3.1-.6l4.5,9.7Z"/>
    <path class="st0" d="M88,260.4l2.3,3.6-2.1,1.3c1.1-.1,2,0,2.9.3s1.5.9,2,1.7c.3.5.6,1.2.7,2l-4.4,1c0-.6-.2-1.1-.4-1.4-.4-.6-1.1-.9-2.2-.9-1.1,0-2.8.8-5.1,2.3l-.8.5-6.7,4.3-2.6-4.1,16.5-10.6Z"/>
    <path class="st0" d="M87.2,293l19.2-18.4,2.9,3c1.7,1.7,2.8,3.1,3.3,4.2.8,1.4,1.1,2.9.9,4.4-.2,1.5-.8,2.7-1.9,3.8-.7.7-1.5,1.2-2.4,1.4-.9.3-1.9.3-3.1,0,.6,1.7.7,3.2.4,4.5-.3,1.3-1,2.5-2.1,3.6-1.1,1-2.3,1.7-3.7,2-1.4.3-2.8.2-4.1-.2-1.3-.5-2.7-1.5-4.1-3l-5.1-5.4ZM99.1,288.6l-4.9,4.7.9.9c1.5,1.5,2.6,2.4,3.5,2.5.9.2,1.7-.1,2.4-.8.8-.8,1.2-1.7,1.1-2.8-.1-1.1-.9-2.3-2.2-3.8l-.7-.8ZM106.4,281.6l-4,3.9.8.8c.9.9,1.7,1.4,2.5,1.4.8,0,1.5-.2,2.1-.8.6-.6.9-1.2.8-2,0-.7-.5-1.5-1.3-2.4l-.9-.9Z"/>
    <path class="st0" d="M115.6,293.5l3.8,3.2-12.6,15-3.8-3.2,12.6-15ZM122.7,288.9c.7.6,1,1.3,1.1,2.1,0,.9-.2,1.7-.8,2.3-.6.7-1.3,1.1-2.1,1.1-.9,0-1.6-.2-2.3-.7-.7-.6-1-1.3-1.1-2.2,0-.9.2-1.7.8-2.4.6-.7,1.3-1,2.1-1.1.9,0,1.6.2,2.3.7Z"/>
    <path class="st0" d="M130.4,304c1.5,1,2.8,2.4,3.6,4,.9,1.7,1.2,3.4,1.1,5.2-.1,1.8-.7,3.5-1.7,5.1-1,1.6-2.4,2.7-4,3.6-1.7.8-3.4,1.2-5.2,1.1-1.8-.1-3.5-.7-5.1-1.7-2.4-1.5-3.8-3.7-4.4-6.5-.6-2.8,0-5.3,1.5-7.7,1.7-2.6,4-4.1,7-4.6,2.6-.4,5,0,7.2,1.5ZM128,308c-1.3-.8-2.6-1.1-4.1-.8-1.4.3-2.6,1.2-3.5,2.6-.9,1.4-1.3,2.9-1,4.3.3,1.4,1,2.6,2.3,3.4,1.3.8,2.7,1.1,4.1.8,1.4-.3,2.6-1.2,3.6-2.6.9-1.4,1.3-2.8,1-4.3-.3-1.4-1.1-2.6-2.4-3.4Z"/>
    <path class="st0" d="M141.8,311.3l4.4,2.2-8.8,17.6-4.4-2.2,8.8-17.6ZM147.6,305.2c.8.4,1.3,1,1.6,1.8.3.8.2,1.7-.2,2.4-.4.8-1,1.3-1.8,1.6s-1.6.2-2.4-.1c-.8-.4-1.3-1-1.6-1.8-.3-.8-.2-1.7.2-2.5.4-.8,1-1.3,1.8-1.6.8-.3,1.6-.2,2.4.2Z"/>
    <path class="st0" d="M149.8,315.5l4.6,1.7-.7,1.9c1.4-.5,2.5-.8,3.5-.8,1,0,1.9.1,2.8.4,1.8.7,3.1,1.9,4,3.6.7,1.5.6,3.3-.1,5.4l-4.4,12.2-4.6-1.7,2.9-8.1c.8-2.2,1.2-3.7,1.3-4.5,0-.8,0-1.5-.4-2-.4-.6-.9-1-1.6-1.2-.9-.3-1.9-.3-2.8,0-.9.4-1.7,1.1-2.3,2.1-.3.5-.9,1.7-1.6,3.7l-2.7,7.4-4.6-1.7,6.7-18.5Z"/>
    <path class="st0" d="M168.2,321.8l1.7.4c.6-2.5,1-4,1.2-4.4.4-1,1-1.8,1.9-2.2.9-.4,2-.5,3.4-.2,1,.2,2.1.7,3.2,1.5l-.9,3.7c-.6-.4-1.2-.6-1.6-.7-.6-.1-1-.1-1.3,0-.2.1-.4.5-.5,1l-.6,2.4,3,.7-1,4.1-3-.7-3.5,15.1-4.8-1.1,3.5-15.1-1.7-.4,1-4.1Z"/>
    <path class="st0" d="M189.4,325.2c1.8.2,3.5.8,5,1.9s2.7,2.5,3.4,4.2c.7,1.7,1,3.4.8,5.3-.2,1.8-.8,3.5-1.9,5-1.1,1.5-2.5,2.6-4.1,3.4-1.7.7-3.5,1-5.4.8-2.8-.3-5.1-1.5-6.9-3.7-1.8-2.2-2.5-4.7-2.2-7.6.3-3.1,1.7-5.5,4.2-7.3,2.2-1.6,4.5-2.2,7-1.9ZM189,329.8c-1.5-.2-2.8.2-4,1.2s-1.8,2.3-2,3.9c-.2,1.7.2,3.1,1.1,4.3.9,1.2,2.1,1.8,3.6,2,1.5.2,2.9-.2,4-1.2,1.1-1,1.8-2.3,2-3.9.2-1.7-.2-3.1-1.1-4.2-.9-1.2-2.1-1.8-3.7-2Z"/>
    <path class="st0" d="M202.2,326.5h4.2c0,0,0,2.4,0,2.4.4-1,1-1.7,1.8-2.3.7-.5,1.6-.8,2.5-.8.6,0,1.3.1,2,.5l-1.4,4.3c-.6-.3-1.1-.4-1.4-.4-.8,0-1.4.5-1.9,1.5-.5,1-.7,2.8-.7,5.5v1s.2,7.9.2,7.9h-4.9c0,.1-.4-19.5-.4-19.5Z"/>
    <path class="st0" d="M214.7,326.8l4.8-.9.4,2.2c.7-1.1,1.4-1.9,2.4-2.6.9-.6,2-1.1,3.2-1.3,1.2-.2,2.4-.1,3.4.3,1.1.4,2,1.1,2.8,2.1.6-1.3,1.3-2.3,2.3-3.1,1-.8,2.2-1.3,3.5-1.6,1.4-.3,2.6-.2,3.8.3s2.1,1.1,2.7,2.1c.7.9,1.2,2.6,1.6,4.9l2.2,11.3-4.9.9-1.9-9.8c-.4-2.2-1-3.6-1.7-4.3-.7-.7-1.6-.9-2.7-.7-.8.2-1.5.5-2.1,1.1-.6.6-.9,1.3-1.1,2.2-.2.9,0,2.3.3,4.1l1.7,8.7-4.9.9-1.8-9.3c-.3-1.7-.7-3-1.1-3.7-.4-.7-.9-1.2-1.5-1.5-.6-.3-1.2-.4-2-.2-.8.2-1.5.5-2.1,1.1-.6.6-.9,1.4-1.1,2.3-.2.9,0,2.3.3,4.2l1.6,8.6-4.8.9-3.7-19.3Z"/>
    <path class="st0" d="M261.3,313.7l4.5-1.9,7.7,18-4.5,1.9-.8-1.9c-.5,1.2-1.1,2.2-1.9,3-.7.8-1.6,1.4-2.7,1.8-2.3,1-4.7,1-7.2-.1-2.5-1.1-4.3-3-5.4-5.6-1.2-2.8-1.4-5.4-.5-7.9.9-2.5,2.5-4.2,4.9-5.2,1.1-.5,2.2-.7,3.3-.7,1.1,0,2.3.2,3.4.7l-.9-2ZM258.1,319.5c-1.4.6-2.3,1.6-2.9,3-.5,1.4-.4,2.9.2,4.4.7,1.6,1.7,2.6,3.1,3.2,1.4.6,2.8.6,4.1,0,1.4-.6,2.4-1.6,2.9-3,.5-1.4.4-2.9-.3-4.5-.7-1.6-1.7-2.6-3-3.2-1.4-.6-2.7-.5-4.2,0Z"/>
    <path class="st0" d="M266.5,302.8l4.2-2.5,3.7,6.2,2.5-1.5,2.2,3.6-2.5,1.5,7.8,13.2-4.2,2.5-7.8-13.2-2.2,1.3-2.2-3.6,2.2-1.3-3.7-6.2Z"/>
    <path class="st0" d="M275.8,295.9c.7-.5,1.5-.7,2.4-.5.9.2,1.6.6,2.1,1.3.5.7.7,1.5.5,2.4-.1.9-.6,1.5-1.3,2-.7.5-1.5.7-2.4.5-.9-.2-1.6-.6-2.1-1.4-.5-.7-.7-1.5-.5-2.3.2-.9.6-1.5,1.3-2ZM278.4,303.9l4-2.8,11.2,16.1-4,2.8-11.2-16.1Z"/>
    <path class="st0" d="M296.8,289.3l3.7-3.3,17.8,20-3.7,3.3-6.2-6.9c-.1,1.3-.4,2.5-.8,3.4-.5.9-1.1,1.8-1.9,2.5-1.9,1.7-4.2,2.4-6.9,2.2s-5-1.4-7-3.6c-2-2.3-3-4.7-3-7.4,0-2.6,1-4.8,2.9-6.5.9-.8,1.9-1.4,2.9-1.7,1.1-.4,2.2-.5,3.5-.4l-1.4-1.6ZM295.6,295.7c-1.1,1-1.7,2.3-1.8,3.7,0,1.5.5,2.8,1.6,4.1,1.1,1.3,2.4,2,3.9,2.1,1.5.1,2.8-.3,3.9-1.3,1.2-1,1.8-2.3,1.8-3.8,0-1.5-.5-2.9-1.7-4.2-1.1-1.3-2.4-2-3.9-2.1-1.5-.1-2.8.4-3.9,1.4Z"/>
    <path class="st0" d="M303.4,282.7l3.1-3.9,7.4,5.9c1.4,1.2,2.5,1.9,3.2,2.1.7.2,1.4.3,2.1,0,.7-.2,1.2-.6,1.8-1.2s.8-1.3.8-2-.1-1.4-.5-2.1c-.3-.5-1.2-1.3-2.6-2.5l-7.5-6,3.1-3.8,6.5,5.2c2.7,2.1,4.3,3.8,5,5,.8,1.5,1.1,3,.9,4.5-.2,1.5-.9,3.1-2.1,4.6-1.3,1.7-2.8,2.7-4.4,3.2-1.6.4-3.2.3-4.9-.3-1.2-.4-3-1.6-5.4-3.6l-6.4-5.1Z"/>
    <path class="st0" d="M336.1,253.9l-7.7,13.8c1.3.5,2.6.5,3.8,0,1.2-.5,2.2-1.4,2.9-2.7.9-1.6,1.1-3.3.6-5.1l3.7-2.7c.8,1.6,1.1,3.2,1,4.8,0,1.6-.6,3.3-1.6,5-1.5,2.7-3.6,4.4-6.2,5.2-2.6.7-5.2.4-7.8-1-2.6-1.5-4.3-3.5-5.1-6.2-.8-2.6-.5-5.2.9-7.8,1.5-2.7,3.6-4.4,6.3-5.1,2.7-.7,5.4-.3,8.3,1.3l.8.5ZM330.3,256.3c-1.1-.2-2.2-.1-3.3.4-1.1.5-1.9,1.3-2.5,2.4-.7,1.2-.9,2.4-.8,3.7.1.8.6,1.7,1.3,2.8l5.2-9.3Z"/>
  </g>
  <g>
    <path class="st2" d="M265.6,172.6v25.9c1.5,1.8,3.2,3.6,4.9,5.5v-31.4h-4.9Z"/>
    <path class="st2" d="M245.4,163.3v9.6c1.5,2.1,3.1,4.3,4.9,6.6v-16.3h-4.9Z"/>
    <g>
      <path class="st2" d="M291.7,224.6c9.6,7,20,10.7,31.6,12.8.6-.5,1.3-1,1.9-1.6,3.5-3.1,6.7-6,9.7-8.8-7.1-5.6-14.4-13.3-23.1-23.6-7.5,8.3-14.1,15.3-20.1,21.2Z"/>
      <path class="st2" d="M336.5,228.3c-3,2.9-6.4,5.9-10,9-.2.2-.4.3-.6.5,13.2,2,28.1,2,45.5,2-13.7-.2-24.1-3.4-34.9-11.6Z"/>
    </g>
    <g>
      <g>
        <path class="st2" d="M125.2,129.2c-4.5-1.1-9.1-2.2-13.6-3.2,1.3.7,2.4,1.4,3.6,2.1,3.1.2,6.4.6,10.1,1.1Z"/>
        <path class="st2" d="M100.7,123.8c-11.3-2.1-22.7-3.6-33.8-3.6s-8.8.2-13.1.7c2.1,2.8,4.2,5.7,6.2,8.8,3.6,5.5,7,10.8,10.3,15.8,13.4-11.6,21.3-17.6,38.6-17.6s1.3,0,2,0c-2.9-1.6-6.3-3-10.2-4.2Z"/>
      </g>
      <path class="st2" d="M197.6,170.5c-28.9-44.6-69.1-49.7-109.1-51.6,47.4,8.3,34.2,28,94.1,101.3,28.1,34.4,60,34.4,107.8,34.4-34.4-.6-51.1-19.9-92.8-84.1Z"/>
      <path class="st2" d="M210,185.7v-30h-4.9v22.6c1.7,2.6,3.3,5,4.9,7.4Z"/>
      <path class="st2" d="M230.3,214.6v-56.7c-.9-.8-1.7-1.5-2.7-2.1h-2.2v52.3c1.7,2.3,3.3,4.5,4.9,6.6Z"/>
      <path class="st2" d="M250.3,237v-54.1c-1.8-2.3-3.4-4.5-4.9-6.6v56c1.7,1.7,3.3,3.2,4.9,4.7Z"/>
      <path class="st2" d="M268,242c2.3-1.4,2.5-1.6,2.5-1.6v-33.4c-1.7-1.9-3.4-3.7-4.9-5.5v41.8c0,0,1.6-.9,2.5-1.4Z"/>
    </g>
    <path class="st2" d="M217.8,150.8c-8.6-1.6-17.2-2.6-25.7-2.6s-6.5.2-9.8.5c5.3,5.1,10.2,11,14.8,17.5,2.1-1.8,4.1-3.4,6-4.8v-5.7c0-1.1.9-2,2-2h4.9c1.1,0,2,.9,2,2v.7c3.8-1.4,8-2.2,13.4-2.2s0,0,0,0c-2.2-1.3-4.7-2.5-7.6-3.5Z"/>
    <path class="st2" d="M310.5,201.9c-1.8-2.2-3.7-4.5-5.6-6.9-.1-.1-.2-.3-.3-.4-.6-.8-1.2-1.5-1.8-2.3,0,0,0-.1-.1-.2-1-1.3-2.1-2.6-3.1-3.9-.5-.7-1.1-1.3-1.6-2-.3-.4-.7-.9-1-1.3-.9-1.1-1.8-2.3-2.7-3.4,0,0,0,0,0,0-8.3-10.6-17.7-18.1-27.8-23.3-.9-.5-1.8-.9-2.8-1.4-2.8-1.3-5.6-2.5-8.5-3.5-1-.3-1.9-.7-2.9-1-1.9-.6-3.9-1.2-5.9-1.7-1-.3-2-.5-3-.7-2-.5-4-.9-6-1.2-11.1-2-22.6-2.7-34-3.2,1.2.2,2.4.4,3.6.6,1.1.2,2.2.4,3.3.6,5.8,1.2,10.3,2.6,14,4.6.7.3,1.3.7,2,1.1s1.3.8,1.9,1.2c1.8,1.2,3.5,2.6,5.1,4.1.5.5,1.1,1,1.6,1.6,1.3,1.4,2.6,2.9,3.9,4.5.3.3.5.7.8,1,.5.7,1.1,1.4,1.6,2.1,1.4,1.8,2.8,3.8,4.4,5.9.6.8,1.3,1.7,1.9,2.6,2,2.7,4.2,5.6,6.7,8.8.8,1.1,1.7,2.2,2.6,3.3,6.3,7.9,14.3,17.2,25.2,28.4.7.7,1.4,1.4,2.1,2.1.6.5,1.1,1.1,1.7,1.6.1.1.2.2.4.3,1.4,1.2,2.8,2.4,4.2,3.5,6-5.9,12.7-13,20.4-21.5Z"/>
  </g>
  <path class="st2" d="M349.1,178.1c-3.5,1-6.9,2.2-10.2,3.7-8.7,4-16.7,10.1-24.2,18.4-22.7,25.1-37,39.4-51.2,46.1,7.6,4,15.5,5.9,24.7,6.3,13.5-1.9,25.5-6.7,37-16.8,14.4-12.5,23.9-23.8,31.6-31.7,11.5-12,16.9-15.3,18.2-16l-25.8-10Z"/>
  <path class="st0" d="M374.2,178.4c-2,0-3.6-1.5-3.8-3.5-8.7-85.8-80.4-150.5-166.8-150.5S88.4,56.5,58.5,108.1c-1.1,1.8-3.4,2.5-5.3,1.4-1.8-1.1-2.5-3.4-1.4-5.3,15.2-26.1,36.9-48,63-63.4,26.8-15.8,57.5-24.1,88.8-24.1s85.6,16.2,117.9,45.6c32.1,29.2,52.2,68.9,56.5,111.9.2,2.1-1.3,4-3.4,4.2-.1,0-.3,0-.4,0Z"/>
  <g>
    <path class="st0" d="M145.3,126.9l9.4-41.6c.5-1.9.4-3.5.4-4.6,0-1.1-.1-2-.5-2.8-.5-1-1.1-1.7-2-2-.8-.3-1.8-.3-2.8.2-1.2.5-1.8,1.4-2,2.7-.1,1.2.3,2.9,1.3,5l-17.5,7.9-.3-.6c-3-6.7-3.5-12.8-1.5-18.3,2.1-5.5,6.4-9.8,13.1-12.8,6.4-2.9,12.3-3.4,17.8-1.7,5.5,1.8,9.5,5.5,12.1,11.2,1.4,3,1.9,6,1.6,9.1-.3,3.1-1.4,6.6-3.4,10.7l-2.7,5.7,13.2-6,7.7,17.6s-11.2,1.8-23.1,7.4c-10.6,4.9-20.9,13-20.9,13Z"/>
    <path class="st0" d="M195.2,80.5l9.6-33.4,35.4,4.3-1.9,15.3-22.5-2.7-1,3.4c1.3,0,2.6,0,3.9.1,1.3,0,2.6.2,3.8.3,6.2.8,11,3,14.1,6.8,3.2,3.8,4.4,8.6,3.7,14.4-.8,6.7-3.8,11.7-8.9,14.8-5.1,3.2-11.8,4.3-20.1,3.2-4-.5-7.8-1.4-11.4-2.7s-6.9-3-10.1-5.2l4.5-15.6c4.1,2.3,7.6,4,10.4,5.1,2.8,1.1,5.4,1.8,7.7,2.1,2.8.3,4.8.2,6.2-.3,1.3-.6,2.1-1.6,2.3-3.1.2-1.8-.6-3.3-2.3-4.4-1.8-1.2-4.4-2-7.9-2.4-1.8-.2-4-.3-6.3-.3-2.4,0-5.4.1-9.2.4Z"/>
    <path class="st0" d="M252,120.2l2.3-3.4c-1.9.7-3.6,1.1-5.1,1-1.5,0-3-.5-4.3-1.4-2.4-1.5-3.8-3.9-4.1-7-.3-3.1.6-6.3,2.6-9.6,2.2-3.4,4.7-5.7,7.6-6.8,2.9-1.1,5.6-.9,8.1.7,1.3.8,2.3,1.9,3,3.1.7,1.2,1.2,2.7,1.3,4.5l1.8-2.8,9.8,6.2-13.9,22.1s-1.9-2.1-4.5-3.8-4.7-2.9-4.7-2.9ZM253.4,105.9c-.6.9-.8,1.8-.6,2.6s.6,1.5,1.4,2c.8.5,1.6.6,2.4.4s1.5-.8,2.1-1.7c.6-.9.8-1.8.7-2.7-.1-.9-.6-1.5-1.4-2-.8-.5-1.6-.6-2.4-.4-.8.3-1.5.8-2.1,1.8Z"/>
    <path class="st0" d="M261.7,127.1l20-16.2,7.4,9.1-2.7,2.2c1.8,0,3.3.1,4.7.7,1.3.5,2.5,1.4,3.5,2.7,1.7,2.1,2.4,4.2,2.1,6.4s-1.5,4.2-3.7,6l-14.4,10.9s-2.4-4.5-3.3-5.7-3.3-4.6-3.3-4.6l10.1-7.4c1-.8,1.5-1.4,1.7-1.9s0-1-.3-1.5c-.4-.6-1-.8-1.7-.7-.7,0-1.4.4-2.2,1.1l-9.6,8s-2.5-2.9-4-4.8-4.4-4.3-4.4-4.3Z"/>
    <path class="st0" d="M280.8,146.7h8.3c-.3,1.6-.5,3-.5,4.2,0,1.2.2,2.2.5,2.9.2.6.6,1,.9,1.2s.7.2,1.2,0c.6-.2.7-1.1.4-2.5,0-.5-.2-.9-.2-1.1-.4-2.4-.2-4.3.4-5.7.6-1.4,1.8-2.5,3.5-3.2,2.4-1,4.8-.8,7.2.5,2.4,1.4,4.2,3.7,5.6,6.9.7,1.6,1.2,3.2,1.5,4.8.3,1.6.4,3.2.4,4.7l-8.1.2c.3-1.3.4-2.5.4-3.5,0-1-.1-1.8-.4-2.4-.2-.5-.5-.9-.8-1.1s-.7-.3-1.1-.1c-.6.2-.7,1.3-.3,3.2,0,.5.1.8.2,1.1.4,2.5.3,4.4-.3,5.9-.6,1.5-1.7,2.6-3.4,3.3-2.6,1.1-5.1.9-7.6-.5-2.5-1.4-4.5-3.8-5.9-7.2-.8-1.9-1.3-3.8-1.7-5.7-.3-2-.4-3.9-.3-5.9Z"/>
  </g>
</svg>